<!-- Symbols International - Ezoteric -->
<svg xmlns="http://www.w3.org/2000/svg" xmlns:xlink="http://www.w3.org/1999/xlink">
  <symbol class="sie sie-astrology-earth" id="astrology-earth" viewBox="0 0 512 512" fill="currentColor">
    <path fill="currentColor" d="M237 32v32h-65v40h65v49l-5 1A181 181 0 0 0 80 295a180 180 0 1 0 199-142h-2v-49h65V64h-65V0h-40v32zm47 163c28 6 50 18 70 39a128 128 0 0 1 41 99c0 29-7 53-23 78-7 10-27 30-37 37a140 140 0 1 1-51-253z"/>
  </symbol>
  <symbol class="sie sie-astrology-mercury" id="astrology-mercury" viewBox="0 0 512 512">
    <path d="m155 7-18 8-2 1 4 8a140 140 0 0 0 43 49l-7 5c-18 10-39 29-51 46-12 19-21 42-26 63a161 161 0 0 0 134 187h4v48h-50v40h50v50h40v-50h50v-40h-50v-48l4-1a155 155 0 0 0 89-45 160 160 0 0 0-39-255l6-5c13-10 30-29 38-46l3-6-4-2a1228 1228 0 0 1-33-14l-3 7a92 92 0 0 1-161 1l-5-8-16 7zm126 91a120 120 0 0 1 13 231 120 120 0 1 1-13-231z"/>
  </symbol>
  <symbol class="sie sie-astrology-neptune" id="astrology-neptune" viewBox="0 0 512 512">
    <path d="m65 67 1 77a192 192 0 0 0 165 171h5v87h-70v40h70v70h40v-70h70v-40h-70v-43l1-44a192 192 0 0 0 169-171l1-77V0h-40v72c-1 71-1 73-3 83a153 153 0 0 1-120 118l-8 2V0h-40v275l-10-2c-59-12-105-58-118-119-2-9-2-13-3-82V0H65v67z"/>
  </symbol>
  <symbol class="sie sie-astrology-sun" id="astrology-sun" viewBox="0 0 512 512" fill="currentColor">
    <path fill="currentColor" d="m237 1-13 1A258 258 0 0 0 2 224a253 253 0 0 0 74 214A255 255 0 1 0 292 3c-10-2-47-3-55-2zm39 40a220 220 0 0 1 165 103 217 217 0 0 1-205 327 216 216 0 0 1 40-430z"/>
    <path fill="currentColor" d="M241 198c-11 3-18 7-27 16s-13 16-16 28c-4 14-2 29 5 42 4 8 17 21 25 25 13 7 28 9 42 5 12-3 19-7 28-16s13-16 16-28c4-14 2-29-5-42-4-8-17-21-25-25-13-7-29-9-43-5zm26 41c6 4 9 9 9 17s-3 13-9 17-16 4-21 0c-8-5-11-14-9-23 1-5 7-11 12-13 5-1 14 0 18 2z"/>
  </symbol>
  <symbol class="sie sie-celtic-rune2" id="celtic-rune2" viewBox="0 0 512 512">
    <path d="M109 2C98 5 91 9 82 18S69 34 66 46c-2 7-2 11-2 210s0 203 2 210c3 12 7 19 16 28s16 13 28 16c7 2 11 2 146 2s139 0 146-2c12-3 19-7 28-16s13-16 16-28c2-7 2-11 2-210s0-203-2-210c-3-12-7-19-16-28S414 5 402 2c-7-2-11-2-146-2-134 0-140 0-147 2zm289 41 7 6 3 4v406l-3 3-6 7-4 3H117l-4-3-6-7-2-3-1-201 1-204c1-5 8-12 12-13l141-1 137 1 3 2z"/>
    <path d="M184 256v176h40V146l47 48 48 47 14-14 14-15-66-66-67-66h-30v176z"/>
  </symbol>
  <symbol class="sie sie-celtic-rune3" id="celtic-rune3" viewBox="0 0 512 512">
    <path d="M109 2C98 5 91 9 82 18S69 34 66 46c-2 7-2 11-2 210s0 203 2 210c3 12 7 19 16 28s16 13 28 16c7 2 11 2 146 2s139 0 146-2c12-3 19-7 28-16s13-16 16-28c2-7 2-11 2-210s0-203-2-210c-3-12-7-19-16-28S414 5 402 2c-7-2-11-2-146-2-134 0-140 0-147 2zm289 41 7 6 3 4v406l-3 3-6 7-4 3H117l-4-3-6-7-2-3-1-201 1-204c1-5 8-12 12-13l141-1 137 1 3 2z"/>
    <path d="M174 256v176h28l46-28 70-43 25-15v-23l-25-15-84-52 55-33 54-32v-12l-1-13-71-43-69-43h-28v176zm76-99 35 21-36 22-35 21v-86l36 22zm0 156 34 21-69 43-1-42 1-43 35 21z"/>
  </symbol>
  <symbol class="sie sie-celtic-rune4" id="celtic-rune4" viewBox="0 0 512 512">
    <path d="M109 2C98 5 91 9 82 18S69 34 66 46c-2 7-2 11-2 210s0 203 2 210c3 12 7 19 16 28s16 13 28 16c7 2 11 2 146 2s139 0 146-2c12-3 19-7 28-16s13-16 16-28c2-7 2-11 2-210s0-203-2-210c-3-12-7-19-16-28S414 5 402 2c-7-2-11-2-146-2-134 0-140 0-147 2zm289 41 7 6 3 4v406l-3 3-6 7-4 3H117l-4-3-6-7-2-3-1-201 1-204c1-5 8-12 12-13l141-1 137 1 3 2z"/>
    <path d="M144 256v176h40V290l36-36 35-36 36 36 36 35v143h40V80h-30l-41 41-40 40-41-40-40-41h-31v176zm62-88 21 22-21 21-22 22v-86l22 21zm121 22v43l-21-22-22-21 21-22 22-21v43z"/>
  </symbol>
  <symbol class="sie sie-celtic-rune5" id="celtic-rune5" viewBox="0 0 512 512">
    <path d="M109 2C98 5 91 9 82 18S69 34 66 46c-2 7-2 11-2 210s0 203 2 210c3 12 7 19 16 28s16 13 28 16c7 2 11 2 146 2s139 0 146-2c12-3 19-7 28-16s13-16 16-28c2-7 2-11 2-210s0-203-2-210c-3-12-7-19-16-28S414 5 402 2c-7-2-11-2-146-2-134 0-140 0-147 2zm289 41 7 6 3 4v406l-3 3-6 7-4 3H117l-4-3-6-7-2-3-1-201 1-204c1-5 8-12 12-13l141-1 137 1 3 2z"/>
    <path d="M144 256v175h33l39-68 40-68 39 68 39 68h33V80h-34l-38 67-39 66c-1 1-19-29-40-66l-38-67h-34v176zm66-40 22 40-47 80a2160 2160 0 0 1 1-162l24 42zm117 80v41l-24-41c-19-32-24-41-23-43l24-41 23-40v124z"/>
  </symbol>
  <symbol class="sie sie-celtic-rune" id="celtic-rune" viewBox="0 0 512 512">
    <path d="M109 2C98 5 91 9 82 18S69 34 66 46c-2 7-2 11-2 210s0 203 2 210c3 12 7 19 16 28s16 13 28 16c7 2 11 2 146 2s139 0 146-2c12-3 19-7 28-16s13-16 16-28c2-7 2-11 2-210s0-203-2-210c-3-12-7-19-16-28S414 5 402 2c-7-2-11-2-146-2-134 0-140 0-147 2zm289 41 7 6 3 4v406l-3 3-6 7-4 3H117l-4-3-6-7-2-3-1-201 1-204c1-5 8-12 12-13l141-1 137 1 3 2z"/>
    <path d="M184 256v176h40v-77l60-60 59-60-14-14-14-14-45 45-46 46v-69l60-60 59-60-14-14-14-15-45 46-46 46V80h-40v176z"/>
  </symbol>
  <symbol class="sie sie-elemental2-air" id="elemental2-air" viewBox="0 0 512 512">
    <path d="M0 91v20h512V70H0v21zm0 111v20h512v-41H0v21zm0 110v20h512v-41H0v21zm0 110v20h512v-41H0v21z"/>
  </symbol>
  <symbol class="sie sie-elemental2-earth" id="elemental2-earth" viewBox="0 0 512 512">
    <path d="M78 67 9 132l-9 9 13 13c7 8 14 14 15 14l54-50 56-52c2-1 7 4 60 53l58 54 58-54 60-54a2988 2988 0 0 1 110 104l15-14 13-14-3-3-51-49-67-63-18-17-58 55-59 54A3360 3360 0 0 1 139 10L78 67z"/>
    <path d="M73 183 4 249l-4 3 14 15 14 14 55-52 56-53a2972 2972 0 0 1 117 108 3353 3353 0 0 0 117-108 2857 2857 0 0 1 112 104l14-14 13-14-69-65-70-66a3353 3353 0 0 0-117 108 2972 2972 0 0 1-117-108l-66 62z"/>
    <path d="M72 293 2 358l-2 3 14 14 14 14 55-52 56-52a3598 3598 0 0 1 117 108 2805 2805 0 0 0 117-108l56 52 55 52 3-3 14-14 11-12-62-58-69-66-8-7-58 54-59 55a6091 6091 0 0 1-117-109l-68 64z"/>
    <path d="M69 405 0 470l14 15 13 14 3-2a9202 9202 0 0 0 109-103 3883 3883 0 0 1 117 108l59-54 58-54 56 53 56 52 13-14 14-15-139-130-101 93-16 15-58-54-59-55-70 66z"/>
  </symbol>
  <symbol class="sie sie-elemental2-fire" id="elemental2-fire" viewBox="0 0 512 512">
    <path d="M73 5C50 24 31 60 24 96c-3 16-4 46-2 60 5 30 17 55 53 115 23 38 34 61 39 77a127 127 0 0 1-28 125l-7 6 11 15c5 9 11 16 12 17s2 0 11-9c17-17 30-37 37-60 10-27 13-63 8-89-4-17-13-40-26-62l-26-45c-26-44-36-63-42-85-3-14-4-37-1-55a121 121 0 0 1 38-73L90 16 79 0l-6 5zm111 0c-23 19-42 55-49 91-3 16-4 46-2 60 5 30 17 56 52 115 30 50 41 73 45 94 2 11 1 37-2 50-6 24-16 43-31 58l-7 7 11 15 12 16c1 1 2 0 11-9a160 160 0 0 0 46-118c1-24 0-30-6-48-8-23-16-39-46-89-27-45-37-64-43-86-3-12-4-35-2-50 4-28 14-52 31-69l8-9-11-17-11-16-6 5zm110 0c-18 15-34 41-43 67-7 21-9 37-9 61 0 40 10 66 53 138 30 50 41 73 45 94a130 130 0 0 1-33 108l-7 7 11 15 11 16c2 1 3 0 12-9 22-23 37-50 44-82 3-19 4-47 1-63-3-14-7-28-14-43s-14-29-37-67c-27-45-37-64-43-86-3-12-4-35-2-50 4-28 14-52 31-69l8-9-11-17-11-16-6 5zm110 0c-21 18-40 51-47 83-5 20-6 50-4 68 5 30 17 56 52 115 30 49 41 73 45 94a130 130 0 0 1-33 108l-7 7 11 15 11 16c2 1 3 0 12-9a170 170 0 0 0 39-166c-7-23-16-40-44-86-39-65-47-86-47-118a129 129 0 0 1 40-99l-11-17-11-16-6 5z"/>
  </symbol>
  <symbol class="sie sie-elemental2-water" id="elemental2-water" viewBox="0 0 512 512">
    <path d="M111 22c-20 2-41 8-58 16S16 60 5 73l-5 6 16 11 17 11 8-7c9-9 14-13 26-19 21-10 42-14 68-14 14 1 18 1 26 3 22 6 41 16 86 42l44 26a177 177 0 0 0 128 25c33-7 60-21 83-44 9-9 10-10 9-12l-16-11-15-11-8 8c-23 22-53 33-88 33-15 0-22-1-36-6-17-5-39-17-78-41-52-31-80-43-107-50-7-1-43-2-52-1zm0 111c-30 3-58 13-79 27-10 7-21 17-27 24l-5 6 16 11 17 11 9-8c17-17 41-27 69-31 15-2 38-1 50 2 22 6 41 16 86 43 50 30 66 38 89 45 18 7 24 8 49 7 19 0 23 0 34-2 34-7 60-22 83-44 9-9 10-10 9-12l-16-11-15-11-8 8c-18 17-40 27-66 31-12 2-34 2-43 0-22-4-44-15-92-44s-66-38-90-45c-18-6-24-7-46-8l-24 1zm0 110c-42 4-84 24-106 51l-5 6 16 11 17 11 9-8c18-17 41-27 70-31 14-2 37-1 49 2 22 6 41 16 86 43 38 23 52 30 67 37 16 7 29 11 43 14 16 3 44 2 63-1 33-7 60-22 82-44 9-9 10-10 9-11l-16-12-15-11-8 8c-18 17-40 27-66 32h-43c-22-5-44-16-92-45-59-35-85-47-114-51-9-2-36-2-46-1zm16 109A175 175 0 0 0 5 404l-5 6 16 11 17 11 8-7c22-22 54-33 91-33 32 0 53 8 118 47 45 28 65 38 87 45 17 6 24 7 48 6 19 0 23 0 34-2 34-7 60-22 83-44 9-9 10-10 9-12l-16-11-15-11-8 8c-24 22-53 33-89 33-30 0-50-8-112-45-37-23-55-32-71-39-27-12-48-16-73-15z"/>
  </symbol>
  <symbol class="sie sie-elemental-air" id="elemental-air" viewBox="0 0 512 512">
    <path d="m195 132-60 110-50 1H34v39h40l39 1-56 105L0 491l128 1h384l-57-104-56-105 40-1h39v-39H377l-60-111-61-111-61 111zm99 41 37 69a2704 2704 0 0 1-150 0l75-137 38 68zm105 194 46 84-95 1H162l-95-1 46-84 46-85h194l46 85z"/>
  </symbol>
  <symbol class="sie sie-elemental-earth" id="elemental-earth" viewBox="0 0 512 512">
    <path d="m3 25 110 204H34v40h101l60 111 61 111 61-111 60-111h101v-40h-79L509 25l3-5H0l3 5zm396 120-45 84H159l-46-84-46-85h378l-46 85zm-68 125-75 138-75-138 75-1 75 1z"/>
  </symbol>
  <symbol class="sie sie-elemental-fire" id="elemental-fire" viewBox="0 0 512 512">
    <path d="M128 256 0 491l128 1h384L384 256 256 21 128 256zm223 22 94 173-95 1H162l-95-1 94-173 95-173 95 173z"/>
  </symbol>
  <symbol class="sie sie-elemental-water" id="elemental-water" viewBox="0 0 512 512">
    <path d="M1 22a137695 137695 0 0 1 255 469A30997 30997 0 0 0 511 22l1-2H0l1 2zm350 212-95 174-95-174L67 60h378l-94 174z"/>
  </symbol>
  <symbol class="sie sie-illuminati-all-seeing-eye" id="illuminati-all-seeing-eye" viewBox="0 0 512 512">
    <path d="M128 256 0 492h512L384 256 256 21 128 256zm168-80 45 84 6 12-6-5c-42-32-86-42-130-27-10 3-25 10-34 16l-5 3 6-12 78-143 40 72zm-80 109a40 40 0 1 0 70 0l-1-5a160 160 0 0 1 47 33l10 9-2 3-27 24c-15 11-33 19-48 22-11 2-29 1-39-2a154 154 0 0 1-66-47 200 200 0 0 1 57-42l-1 5zm198 111 31 56H67l2-3 55-102c1-2 1-2 12 9 37 38 75 56 114 56 15 0 27-2 41-6 27-10 53-27 79-55l13-12 31 57z"/>
  </symbol>
  <symbol class="sie sie-illuminati-eye-hand" id="illuminati-eye-hand" viewBox="0 0 512 512">
    <path d="M283 2c-14 3-30 15-36 27-3 4-4 6-5 5l-8-2c-13-2-24-1-37 5-15 8-27 23-30 39-2 5-2 24-2 112 0 115 0 110-6 119l-6 6-4 1-18-16c-24-22-26-24-34-28-24-11-50-7-69 12a59 59 0 0 0-15 60c4 14 5 16 63 71 59 56 62 59 77 69 20 13 41 22 63 27l11 3h180l9-3c21-6 36-14 50-27 19-19 31-42 35-67l1-147c0-153 0-146-7-160a58 58 0 0 0-64-29l-5 1c-7-20-16-30-31-38-13-6-26-7-42-3-2 0-3 0-7-8a57 57 0 0 0-63-29zm19 39c3 2 8 6 10 10l1 101v97h40v-79c0-88 0-84 6-90 7-5 15-5 22 0 6 6 6 2 6 90v79h40v-58c0-63 0-62 5-68 6-6 18-7 25-1 5 5 5-2 5 147 0 154 0 145-7 162-8 16-18 26-34 34-16 7-14 7-105 7-88 0-88 0-106-6-12-4-29-13-40-21-10-7-114-106-118-111-3-5-2-15 1-21 3-5 8-8 14-9 9-1 11 0 37 24 29 25 31 26 44 26 22 0 42-15 52-39 5-13 5-11 5-125 0-103 0-105 2-109 5-10 17-13 26-6 6 6 6 2 6 92v82h40v-97l1-101c4-9 13-13 22-10z"/>
    <path d="M304 290c-20 3-40 13-59 29-17 13-42 43-40 46 3 5 19 24 29 33 33 32 69 46 103 40 26-5 50-18 74-42 14-14 27-31 26-33-3-6-16-21-26-31-19-19-36-31-55-38-18-6-35-7-52-5zm-12 47-1 11c0 7 0 9 2 14 3 6 9 11 15 14s18 3 26 0c13-6 21-22 17-36l-2-5 6 3c7 4 18 12 25 20l6 5-6 6a91 91 0 0 1-59 30c-13 0-31-7-44-16l-21-19a113 113 0 0 1 37-29l-1 2z"/>
  </symbol>
  <symbol class="sie sie-religion-ankh" id="religion-ankh" viewBox="0 0 512 512">
    <path d="M239 2c-40 7-71 36-80 75-6 23-2 55 12 96l4 12-47 1H80v120h116v206h120V306h116V186h-95l3-11c9-25 15-50 16-69A100 100 0 0 0 239 1zm31 40c12 3 19 7 28 16 16 16 20 33 17 58-4 21-13 51-28 87l-10 23h115v40H276v206h-40V266H120v-40h115l-8-19c-20-47-29-78-31-102 0-12 2-22 7-32 4-9 16-21 25-26 13-7 28-9 42-5z"/>
    <path d="M249 81c-4 1-11 8-12 13v10c1 10 18 74 19 74s9-28 15-54c5-19 6-29 2-34-5-8-15-12-24-9z"/>
  </symbol>
  <symbol class="sie sie-religion-bell" id="religion-bell" viewBox="0 0 512 512">
    <path d="M241 2c-11 3-18 7-27 16a57 57 0 0 0-16 55c3 16 16 33 31 40l7 3v72l-7 1c-16 2-38 12-52 21-32 21-54 55-63 94-3 15-4 27-4 71 0 47 0 52-6 63-3 6-9 12-16 15-4 2-7 3-19 3H54v56h404v-56h-15c-13-1-15-1-19-3-10-4-16-13-20-26l-2-56c-1-49-1-54-4-69-9-39-32-72-64-93-15-9-35-17-51-20l-7-1v-71l7-4c10-5 21-16 26-26 9-18 9-38 0-55-4-8-17-21-25-25-13-7-29-9-43-5zm26 41c6 4 9 9 9 17s-3 13-9 17-16 4-21 0c-8-5-11-14-9-23 1-5 7-11 12-13 5-1 14 0 18 2zm15 186c11 3 26 10 34 16l14 13c12 13 19 24 25 42 6 17 7 26 7 73l1 50c2 16 8 33 17 44l3 5H256c-100 0-126 0-125-1l4-6c4-6 9-18 12-26l1-7h174v-40H150v-30c0-34 1-45 6-61a104 104 0 0 1 85-74c11-1 29 0 40 2z"/>
  </symbol>
  <symbol class="sie sie-religion-candles" id="religion-candles" viewBox="0 0 512 512">
    <path d="m50 9-9 16c-4 7-4 9-4 15 0 7 3 12 9 16 5 4 15 3 21 0 6-4 9-9 9-17 0-5-1-7-5-14-4-9-14-24-15-24l-6 8zm80 0-9 16c-4 7-4 9-4 15 0 7 3 12 9 16 5 4 15 3 21 0 6-4 9-9 9-17 0-5-1-7-5-14-4-9-14-24-15-24l-6 8zm80 0-9 16c-4 7-5 9-5 15 1 7 4 12 10 16 5 4 15 3 21 0 6-4 8-9 8-17 1-5 0-7-4-14-4-9-14-24-15-24l-6 8zm80 0-9 16c-4 7-4 9-4 15 0 7 3 12 9 16 5 4 15 3 21 0 6-4 8-9 8-17 1-5 0-7-4-14-4-9-14-24-15-24l-6 8zm80 0-9 16c-4 7-4 9-4 15 0 7 3 12 9 16 5 4 15 3 21 0 6-4 8-9 8-17 1-5 0-7-4-14-4-9-14-24-15-24l-6 8zm80 0-9 16c-4 7-4 9-4 15 0 7 3 12 9 16 5 4 15 3 21 0 6-4 8-9 8-17 1-5 0-7-4-14-4-9-14-24-15-24l-6 8zM36 296v216h40V79H36v217zm80 0v216h40V79h-40v217zm80 0v216h40V79h-40v217zm80 0v216h40V79h-40v217zm80 0v216h40V79h-40v217zm80 0v216h40V79h-40v217z"/>
  </symbol>
  <symbol class="sie sie-religion-cauldron" id="religion-cauldron" viewBox="0 0 512 512">
    <path d="M236 1A221 221 0 0 0 46 165l-3 11-9 4a64 64 0 0 0-34 51v3h40l1-4c1-9 10-16 19-16 13 0 23 13 19 25-2 6-5 10-15 22a72 72 0 0 0-23 50c-1 24 7 40 28 64 15 17 40 35 64 47 12 6 13 6 12 8l-16 39-18 40-1 3h44l15-35c14-32 15-35 17-35l12 2 24 4 14 2v62h40v-62l14-2a270 270 0 0 0 37-7h3l15 35 15 36h43l-18-43-18-41 13-7c30-15 56-36 73-59 13-17 17-30 17-50 0-11 0-13-2-20-4-11-10-20-22-34-12-13-13-16-13-25 0-5 0-6 3-10 3-5 10-9 16-9 9 0 18 7 20 16v4h40v-3c0-6-3-17-7-24-4-10-15-21-26-26l-7-4-1-8a230 230 0 0 0-81-124A223 223 0 0 0 236 1zm40 40a180 180 0 0 1 154 132l-173 1H84l2-5A180 180 0 0 1 276 41zm119 175c-6 23-1 43 15 61 18 21 21 26 20 39-1 10-2 12-9 22-27 36-76 61-134 70-12 2-49 2-61 0-53-7-95-27-125-58-14-14-20-24-20-35 0-9 7-18 15-20l91-1h88v-40H117v-2l2-10c1-8 1-18-2-26v-2h278v2z"/>
  </symbol>
  <symbol class="sie sie-religion-crystal" id="religion-crystal" viewBox="0 0 512 512">
    <path d="M80 80 0 159v353h212v-40h-63V187h133l14-14 14-14-67-71-74-80-8-8-81 80zm128 28 35 38-43 1h-45a1940 1940 0 0 1 18-77l35 38zm-88 11-6 28H70l28-28 28-28-6 28zm-11 211v142H40V188h69v142z"/>
    <path d="m317 208-65 62v242h260V270l-61-57-65-63-5-4-64 62zm105 32 27 25-31 1h-32l9-52 27 26zm-73 7-3 17c-1 2-1 2-16 2h-16l19-17 18-18-3 16zm-6 142v83h-51V306h51v83zm129 0v83h-89V306h89v83z"/>
  </symbol>
  <symbol class="sie sie-religion-incense-burner" id="religion-incense-burner" viewBox="0 0 512 512">
    <path d="M72 1a83 83 0 0 0-21 159c12 4 18 5 33 5 30 0 57-9 89-30 14-10 30-22 59-46 41-35 59-47 80-49 7 0 11 1 13 7l2 4h39v-4c0-10-6-24-15-32-13-13-29-17-50-14-28 5-52 20-100 60-19 17-37 32-48 39-19 13-38 21-56 24-20 4-33 1-44-11a43 43 0 0 1 24-73h6V0h-4l-8 1zm369 69-19 10A1179 1179 0 0 0 88 377l-6 7H0v31c1 33 1 34 6 48 7 18 26 37 44 44 15 6 0 6 206 6s191 0 206-6c18-7 37-26 44-44 5-14 5-15 6-48v-31H323l-189-1 27-32a1135 1135 0 0 1 303-248l-19-34-4 2zm31 362c-1 8-1 11-4 16-4 9-10 15-19 20l-7 3H70l-7-3c-9-5-15-11-19-20-3-5-3-8-4-16v-9h432v9z"/>
    <path d="M434 184v20h40v-40h-40v20zm0 80v20h40v-40h-40v20z"/>
  </symbol>
  <symbol class="sie sie-religion-knife" id="religion-knife" viewBox="0 0 512 512">
    <path d="M481 15a1460 1460 0 0 0-327 231l-14 13-12-11c-13-13-21-18-33-21a60 60 0 0 0-59 97l3 4 14-14 14-14-2-4c-6-11-2-23 8-28 5-2 12-3 17-1l34 32 30 31-34 34c-30 29-35 34-36 33-8-4-25-6-36-4-12 3-21 8-30 17a55 55 0 0 0-17 33v18c2 14 7 23 17 33 19 19 46 23 70 11 15-8 27-23 31-40 2-9 1-23-2-32l-2-7 34-34 33-34 30 30c17 16 31 31 32 33 5 10 0 23-10 28-7 2-15 1-20-3-1-2-3 0-16 12l-14 15 5 4c32 25 80 11 94-27 3-11 4-25 1-36s-8-19-21-32l-11-12 12-12A1495 1495 0 0 0 511 1l-30 14zm-68 84-26 41a1446 1446 0 0 1-163 202l-28-27-27-28 10-9A1425 1425 0 0 1 413 99zM68 434c14 6 16 25 3 34-12 9-29 1-31-14 0-4 0-6 2-10 5-10 16-14 26-10z"/>
  </symbol>
  <symbol class="sie sie-religion-medium" id="religion-medium" viewBox="0 0 512 512">
    <path d="M241 1a149 149 0 0 0-133 146l-3 27c-8 31-26 55-66 86l-17 14 5 9 10 15a187 187 0 0 0 36 35l-7 8C28 382 4 440 0 499v13h40v-5a215 215 0 0 1 283-200 216 216 0 0 1 149 200v5h40v-13a263 263 0 0 0-66-158l-7-8 2-2c17-12 32-28 44-48l5-9-17-14c-40-31-58-55-66-86l-3-27A148 148 0 0 0 241 1zm42 42c29 8 54 28 68 54l4 8H157l3-6c15-30 46-53 81-58 10-2 30 0 42 2zm81 112c-2 18-9 39-19 54-5 8-16 19-24 25-9 7-27 15-38 19-9 2-12 2-27 2s-18 0-26-2a109 109 0 0 1-82-98v-10h216v10zm-232 74c9 14 22 27 35 37l5 4-3 1c-19 7-37 16-53 27l-11 7-3-1c-6-4-17-12-21-17l-5-5 3-2a261 261 0 0 0 49-57l4 6zm255-1c7 12 23 30 39 46l10 8-5 5c-5 5-15 13-21 16l-3 2-9-6c-18-12-36-21-56-28-2-1-1-2 3-5a153 153 0 0 0 39-43l3 5z"/>
    <path d="M240 338c-29 5-55 27-66 54-9 23-7 49 3 71l5 9h-17v40h182v-40h-17l5-9c6-13 8-23 8-39 0-11 0-15-2-21a88 88 0 0 0-101-65zm28 40c25 6 41 32 35 57-5 18-18 31-35 36-26 6-52-10-58-35-9-35 23-67 58-58z"/>
  </symbol>
  <symbol class="sie sie-religion-menorah" id="religion-menorah" viewBox="0 0 512 512">
    <path d="M14 9 5 25c-4 7-5 9-5 15 0 7 4 12 10 16 5 4 15 3 21 0 6-4 9-9 9-17 0-5-1-7-5-14-4-9-14-24-15-24l-6 8zm80 0-9 16c-4 7-4 9-4 15 0 7 3 12 9 16 5 4 15 3 21 0 6-4 9-9 9-17 0-5-1-7-5-14-4-9-14-24-15-24l-6 8zm78 0-9 16c-4 7-5 9-5 15 1 7 4 12 10 16 5 4 15 3 21 0 6-4 8-9 8-17 1-5 0-7-4-14-4-9-14-24-15-24l-6 8zm78 0-9 16c-4 7-5 9-5 15 1 7 4 12 10 16 5 4 15 3 21 0 6-4 8-9 8-17 1-5 0-7-4-14-4-9-14-24-15-24l-6 8zm78 0-9 16c-4 7-4 9-4 15 0 7 3 12 9 16 5 4 15 3 21 0 6-4 8-9 8-17 1-5 0-7-4-14-4-9-14-24-15-24l-6 8zm78 0-9 16c-4 7-4 9-4 15 0 7 3 12 9 16 5 4 15 3 21 0 6-4 8-9 8-17 1-5 0-7-4-14-4-9-14-24-15-24l-6 8zm80 0-9 16c-4 7-4 9-4 15 0 7 3 12 9 16 5 4 15 3 21 0 6-4 8-9 8-17 1-5 0-7-4-14-4-9-14-24-15-24l-6 8zM0 108c1 20 1 33 3 40a253 253 0 0 0 223 218l10 1v105h-96v40h232v-40h-96V367l10-1a256 256 0 0 0 226-265V79h-40v21a216 216 0 0 1-195 227l-1-19v-20l4-1a180 180 0 0 0 133-95c15-30 19-51 19-91V79h-40v26l-2 34a141 141 0 0 1-108 108h-6v-37l9-2c30-10 53-33 64-62 4-13 5-22 5-46V79h-40v20c0 23-1 30-6 41-6 11-20 25-30 28h-2V79h-40v45c0 44 0 44-2 44-10-3-25-18-30-28-5-11-6-18-6-41V79h-40v21c0 24 1 33 5 46 10 29 34 52 64 62l9 2v37h-5l-13-3a135 135 0 0 1-98-138V78H80v28c1 30 2 39 7 57a176 176 0 0 0 145 123l4 1v39h-6A218 218 0 0 1 40 107V79H0v29z"/>
  </symbol>
  <symbol class="sie sie-religion-palmistry" id="religion-palmistry" viewBox="0 0 512 512">
    <path d="M283 2c-14 3-30 15-36 27-3 4-4 6-5 5l-20-3c-14 0-30 6-40 17-8 8-14 20-16 29l-1 111c0 115 0 110-6 119l-6 6-4 1-9-8-39-33a60 60 0 0 0-58-2c-9 4-21 16-26 25-9 17-9 37 0 55a2140 2140 0 0 0 126 124c22 17 47 29 73 34l11 3h180l9-3c21-6 36-14 50-27 19-19 31-42 35-67l1-147c0-135 0-140-2-147-6-22-21-38-43-42-11-3-19-2-29 0-2 1-3 1-4-3a58 58 0 0 0-71-37c-2 0-3-1-6-8a57 57 0 0 0-64-29zm20 40c3 1 6 4 7 6l3 3v198h40v-79c0-88 0-84 6-90 7-5 15-5 22 0 6 6 6 2 6 90v79h40V132l3-5c3-7 7-9 15-9 7 0 12 2 15 8 2 5 2 5 2 142 0 157 1 146-8 164a71 71 0 0 1-50 38c-7 2-19 2-87 2l-88-1c-17-2-41-13-59-26-10-7-114-106-117-111-4-5-3-15 0-21 4-5 8-8 14-9 9-1 11 0 38 24 27 25 30 26 43 26 24 0 45-17 54-45l3-7V192c0-83 1-110 2-112l4-5c7-5 15-5 22 0 6 6 6 2 6 92v82h40v-97l1-101 4-5c5-6 12-7 19-4z"/>
    <path d="M240 323v17l10 5c36 18 60 50 63 85v7h40v-9c-2-25-11-49-26-70-4-5-5-8-4-8a350 350 0 0 1 83 17l14-36-25-8c-37-10-78-16-127-17h-28v17z"/>
  </symbol>
  <symbol class="sie sie-religion-pendulum" id="religion-pendulum" viewBox="0 0 512 512">
    <path d="M144 1a101 101 0 0 0-79 68c-4 14-5 22-5 79v52l-7 3a61 61 0 0 0-25 83l4 6-7 7a81 81 0 0 0-24 61c1 20 14 49 39 90l40 61a659 659 0 0 0 79-145 79 79 0 0 0-27-71l-4-3 4-6c10-16 11-39 2-56-6-12-17-23-29-29l-5-2v-55c1-53 1-55 3-61 6-19 22-34 41-40 6-2 9-2 27-2 23 0 26 0 38 6 16 8 27 22 31 40 2 7 2 11 2 170 0 175 0 169 5 186a104 104 0 0 0 111 68 102 102 0 0 0 90-76l3-9V257l1-168 2-8c8-22 27-37 49-40l9-1V0h-4l-13 2a102 102 0 0 0-82 77c-1 5-2 21-2 174v169l-4 8c-1 5-4 11-6 14-8 12-22 22-36 26-9 2-28 2-37 0-20-6-37-22-44-42-1-5-2-14-2-174V86l-3-10c-5-18-13-31-26-45a99 99 0 0 0-79-31l-30 1zM88 238c14 6 16 26 3 34-8 6-17 5-25-2-5-6-7-13-5-20 4-11 16-17 27-12zm9 82c13 6 22 19 23 33 0 8-3 19-14 41-8 16-25 45-26 45-2 0-31-54-36-68-4-11-4-16-3-23 3-14 13-25 26-30 4-2 8-2 15-2 8 1 10 1 15 4z"/>
  </symbol>
  <symbol class="sie sie-religion-pentagram" id="religion-pentagram" viewBox="0 0 512 512">
    <path d="m237 1-13 1A258 258 0 0 0 2 224a257 257 0 0 0 324 278A256 256 0 0 0 237 1zm-16 108-21 67h-72l-72-1 6-13A218 218 0 0 1 243 41l-22 68zm79-64a217 217 0 0 1 156 130l-72 1h-72l-21-67-22-68c0-1 16 1 31 4zm-30 129 13 42h89l-36 26-35 27a1407 1407 0 0 0 26 83l-36-26-35-25-35 25c-19 15-35 26-36 26a766 766 0 0 1 26-83l-21-16-36-26-14-11h89l13-41 14-42 14 42zm-163 68 57 42a2109 2109 0 0 1-46 138l-13-12a215 215 0 0 1-57-210h1l58 42zm360-32a216 216 0 0 1-73 212 2025 2025 0 0 1-46-138 1857 1857 0 0 1 116-84l3 10zM314 393l59 42c1 2 0 3-8 8a216 216 0 0 1-217 0c-8-5-10-6-9-7l117-85 58 42z"/>
  </symbol>
  <symbol class="sie sie-religion-potion" id="religion-potion" viewBox="0 0 512 512">
    <path d="M135 35v35h-30v40h30v38h-11c-25 2-46 11-64 29a97 97 0 0 0-29 65l-1 116c1 115 0 107 8 122 5 11 14 20 26 25l16 6 180 1h174l6-3c15-5 28-17 35-30 7-14 6-7 7-121 0-108 0-123-4-137a99 99 0 0 0-90-73h-10v-38h30V70h-30V0H135v35zm202 20v15H176V40h161v15zm0 94v39h29c26 1 29 1 34 3 10 3 16 7 22 13 13 12 19 25 19 44v11l-4 1c-8 1-14 5-27 17-22 22-28 22-51 0-13-12-19-16-29-18h-19c-10 2-16 6-29 18-22 22-28 22-51 0-13-12-19-16-29-18s-20-1-30 4l-18 14c-22 22-28 22-51 0-13-12-19-16-28-18h-4v-11c0-9 1-12 3-19 5-18 18-31 37-38 6-2 7-2 36-3h29v-78h161v39zM205 308c18 18 34 26 51 26 18 0 34-8 52-26 7-7 11-10 13-10l12 10c10 10 19 17 28 21 24 11 48 5 73-18l7-7v156l-4 4-7 6-4 2H86l-4-2-7-6-4-4V303l8 7c21 20 41 27 62 23 14-4 25-11 39-25l12-10c2 0 6 3 13 10z"/>
  </symbol>
  <symbol class="sie sie-religion-singing-bowl" id="religion-singing-bowl" viewBox="0 0 512 512">
    <path d="M435 1c-13 3-23 8-32 17l-88 99-83 95H92l-10 8c-12 10-30 28-40 40-56 69-56 135 0 204 10 13 27 30 40 40l10 8h328l8-6c19-15 43-42 57-62 17-26 27-57 27-82s-10-56-27-82c-13-20-36-45-56-61l-8-6-23-1h-23l57-49 62-54c7-7 11-15 15-24 2-7 2-10 2-20 0-11 0-13-2-20-7-21-21-35-41-41-10-4-24-5-33-3zm24 42c8 4 12 11 13 21 0 6-1 8-3 12-2 3-19 19-79 70l-77 66h-28l73-83 76-85c7-4 17-5 25-1zm-38 223c26 26 41 50 48 75 3 11 3 31 0 42-7 25-22 49-48 75l-14 14H106l-11-10c-18-17-34-38-43-55-4-8-9-21-9-24l182-1h181v-40H225l-182-1a193 193 0 0 1 55-82l8-7h301l14 14z"/>
  </symbol>
  <symbol class="sie sie-religion-spirit-board" id="religion-spirit-board" viewBox="0 0 512 512">
    <path d="M244 15c-28 35-68 90-97 133A712 712 0 0 0 22 403c-2 13-1 38 2 49 7 27 25 47 51 55 12 4 18 5 35 4 13 0 18 0 28-2 21-5 49-15 78-27a78 78 0 0 1 68-2c58 24 79 30 108 32 37 2 67-10 84-34 10-14 14-28 15-51 0-18-1-28-6-48-16-65-70-163-153-278C303 60 258 1 256 1l-12 14zm27 70c89 119 148 219 170 286 14 41 13 74-1 88-9 9-21 12-41 12-26 0-44-5-95-26a117 117 0 0 0-108 2c-47 20-71 26-93 25-18-2-31-8-37-21-6-11-7-33-2-54 11-58 64-155 147-271l45-61 15 20z"/>
    <path d="M239 194c-30 6-54 30-62 61l-1 20c1 12 1 14 4 22a79 79 0 0 0 71 55 80 80 0 0 0 79-109 80 80 0 0 0-91-49zm31 41c8 3 17 11 21 20 3 6 3 7 3 17 1 9 0 11-2 16-5 11-14 19-25 22-8 3-15 3-23 0-11-3-20-11-25-22-2-5-3-7-3-16 1-9 1-11 3-16 3-7 11-15 16-18 10-6 24-7 35-3z"/>
  </symbol>
  <symbol class="sie sie-religion-tarot" id="religion-tarot" viewBox="0 0 512 512">
    <path d="M58 2C47 5 40 9 31 18S18 34 15 46c-2 7-2 11-2 210s0 203 2 210c3 12 7 19 16 28s16 13 28 16c7 2 11 2 197 2s190 0 197-2c12-3 19-7 28-16s13-16 16-28c2-7 2-11 2-210s0-203-2-210c-3-12-7-19-16-28S465 5 453 2c-7-2-11-2-197-2C72 0 65 0 58 2zm311 41 7 6 3 4v406l-3 3-6 7-4 3H66l-4-3-6-7-2-3-1-201 1-204c1-5 8-12 12-13l152-1 148 1 3 2zm81 0 6 7 3 4v405l-3 3-6 7c-4 2-5 3-19 3h-15l2-7a13174 13174 0 0 0-2-425h15c14 1 15 1 19 3z"/>
    <path d="m198 169-17 30h-33l-33 1a1319 1319 0 0 0 32 56l-16 29-17 28h67l17 30 18 30 18-30 17-30h67l-17-28-16-29a662 662 0 0 1 32-56l-33-1h-33l-17-30-18-30-18 30zm44 73 8 14-8 14-7 14h-38l-7-14-8-14 8-14 7-15h38l7 15z"/>
  </symbol>
  <symbol class="sie sie-religion-voodoo-doll" id="religion-voodoo-doll" viewBox="0 0 512 512">
    <path d="M240 2a91 91 0 0 0-73 72l-12-10c-18-17-28-22-46-24-28-2-55 19-61 48-5 19 1 38 14 53l37 35 31 29 35 7 36 6A6188 6188 0 0 0 88 110l-1-10c0-8 2-13 8-17 6-3 16-4 21 0l56 52 54 51h60l53-51 56-53c5-3 15-2 21 1 6 4 8 9 8 17 1 4 0 7-1 10l-55 53-52 50v20c0 20 0 21 2 21l18-4 18-5c2 0 2-1 2-8v-7l42-40c53-50 56-54 60-63 12-24 8-50-11-69a57 57 0 0 0-45-18c-18 2-28 7-45 23l-12 11-2-7A91 91 0 0 0 240 2zm26 39c23 5 40 26 40 49s-17 44-40 49c-30 6-60-18-60-49 0-22 16-43 38-49h22zM57 221c-10 3-19 9-23 19-3 6-4 7-4 15s1 9 4 15c9 20 33 26 51 13l5-3 68 11 69 13h2v-41l-10-1-120-22c-2 0-4-2-5-4-3-5-9-10-15-13-6-2-17-3-22-2zm381 32a39 39 0 0 0-23 19l-118 27a277 277 0 0 0 1 41l63-14 62-14 4 3c7 5 14 6 23 6 13-1 23-8 29-21 2-5 3-7 3-14l-3-14c-7-16-25-24-41-20zM107 368l-46 44a59 59 0 0 0-14 51c5 21 21 39 42 46 5 2 9 2 18 2 12 0 19-2 30-8l55-51 50-47h28l49 47 55 51c11 6 18 8 30 8 10 0 13 0 18-2 16-5 29-17 36-30 9-19 9-37 0-55-4-8-10-15-46-49l-16-16-24 5-23 6 36 34c39 37 41 39 40 49-1 13-16 22-28 16-3-1-25-21-58-53l-53-51h-60l-41 39-54 51-17 14c-12 6-27-3-28-16 0-10 0-11 57-65 29-26 52-49 51-49a291 291 0 0 0-46-8c-1-1-18 15-41 37z"/>
  </symbol>
  <symbol class="sie sie-religion-voodoo" id="religion-voodoo" viewBox="0 0 512 512">
    <path d="M25 1C15 5 8 11 3 21c-2 5-3 7-3 14 0 8 1 9 4 15 5 11 15 18 27 20h5l54 69 55 69 4-3 16-12 11-10-54-68-54-68 1-5A35 35 0 0 0 37 0L25 1zm111 66a759 759 0 0 0 41 46c28 12 49 45 57 88l2 12h40l2-12c8-43 27-73 56-87 13-6 21-7 40-7 15 0 18 0 26 2 42 12 69 47 72 95 0 13-1 24-5 38-8 23-23 47-46 73l-9 11 34 21 23-28c21-28 35-57 41-84 2-12 2-40 0-54-12-67-63-112-130-115-52-2-95 22-119 65l-5 8-4-7c-19-35-54-59-94-65-14-1-23-2-22 0zM22 129C7 155 0 181 0 210c0 46 26 96 78 150l12 12 14-14 14-14-12-12c-38-40-61-77-65-109-3-19 1-46 10-62l2-5-13-16-14-17-4 6zm286 201-10 17 72 47 72 46v5c1 7 6 16 11 20 7 7 14 10 24 10 7 0 9-1 14-3 8-4 13-9 17-17 3-6 4-7 4-15s-1-9-4-15c-6-12-17-19-30-19h-10c-3 1-9-3-76-46l-73-47-11 17zm-167 48-63 64h-8c-14 1-25 8-31 21-2 5-3 7-3 14s1 9 3 14c4 8 9 13 17 17 6 3 7 4 15 4s9-1 15-4c12-6 19-16 20-30v-8l58-58 63-65 6-6-14-13-15-14-63 64zm157 42-31 19-11 7-14-9-22-13-7-5-14 14-14 15c0 1 31 21 54 34l17 10 14-8a850 850 0 0 0 82-54l-35-23-19 13z"/>
  </symbol>
  <symbol class="sie sie-religion-yin-yang" id="religion-yin-yang" viewBox="0 0 512 512">
    <path d="m237 1-13 1A258 258 0 0 0 2 224a253 253 0 0 0 74 214A255 255 0 1 0 292 3c-10-2-47-3-55-2zm35 40c36 7 65 31 77 65a98 98 0 0 1-94 130l-25 3c-54 10-97 52-109 107-2 9-2 14-2 28 0 20 2 32 8 47l3 10-27-22A216 216 0 0 1 272 41zm127 53a217 217 0 0 1-74 366c-33 11-70 15-92 9-33-8-59-32-70-63a98 98 0 0 1 94-130A138 138 0 0 0 383 82l16 12z"/>
    <path d="M246 104c-10 4-17 10-22 20-2 5-2 7-2 14 0 8 0 9 3 15 4 8 9 13 17 17 5 2 7 2 14 2s9 0 14-2c8-4 13-9 17-17 3-6 4-7 4-15 0-7-1-9-3-14-6-13-17-20-30-21l-12 1zm0 236c-10 4-17 10-22 20-2 5-2 7-2 14 0 8 0 9 3 15 4 8 9 13 17 17 5 2 7 2 14 2 7 1 9 0 14-2 8-4 13-9 17-17 3-6 4-7 4-15 0-7-1-9-3-14-6-13-17-20-30-21l-12 1z"/>
  </symbol>
  <symbol class="sie sie-zodiac-aquarius" id="zodiac-aquarius" viewBox="0 0 512 512">
    <path d="M74 126c-14 3-26 13-42 34l-13 18c-5 5-13 10-17 10-2 0-2 1-2 20v20h6c21-3 37-14 58-43 10-14 18-21 21-21 5 0 11 6 23 22 15 20 26 31 37 36 14 6 25 7 39 4 15-4 29-15 47-38 15-18 21-24 26-24 3 0 11 8 21 22 19 25 32 36 49 40 11 3 21 2 32-1 14-5 24-14 43-37 17-21 21-25 27-24 5 1 13 9 24 23 25 29 37 38 54 41h5v-40l-2-1c-5-2-10-7-22-22-15-18-23-26-32-32a49 49 0 0 0-64 6l-19 21a98 98 0 0 1-25 26c-12 5-19 0-38-25-20-26-32-35-50-37-18-1-34 8-52 29-23 28-28 33-36 35-9 1-16-5-33-27-12-16-24-28-32-32-11-5-22-6-33-3zm0 160c-14 3-26 13-42 35l-13 17c-5 5-13 10-17 10-2 0-2 1-2 20v20h6c21-3 37-14 58-42 10-14 18-22 21-22 5 0 11 6 23 22 15 20 26 31 37 36 14 6 25 7 39 4 15-4 29-15 47-37 15-19 21-25 26-25 3 0 11 8 21 22 19 25 32 36 49 40 11 3 21 2 32-1 14-5 24-14 43-37 17-21 21-25 27-24 5 2 13 9 24 23 25 29 37 38 54 41h5v-40l-2-1c-5-2-10-7-22-22-15-18-23-26-32-32a49 49 0 0 0-64 6l-19 21a98 98 0 0 1-25 26c-12 5-19 1-38-25-20-26-32-35-50-37-18-1-34 8-52 29-23 28-28 33-36 35-9 1-16-5-33-27-12-16-24-28-32-32-11-5-22-6-33-3z"/>
  </symbol>
  <symbol class="sie sie-zodiac-aries" id="zodiac-aries" viewBox="0 0 512 512">
    <path d="M79 2A94 94 0 0 0 0 89v7h40l1-8c4-29 31-50 59-48 51 5 92 89 116 235 10 63 16 130 19 204l1 33h40l1-33c5-136 23-258 51-336 19-55 44-90 71-100 32-11 67 11 72 45l1 8h40v-8c-2-23-12-43-29-60a93 93 0 0 0-97-23c-55 19-96 94-122 223a984 984 0 0 0-8 41l-2-8-6-33C222 99 181 24 126 5c-16-5-31-6-47-4z"/>
  </symbol>
  <symbol class="sie sie-zodiac-cancer" id="zodiac-cancer" viewBox="0 0 512 512">
    <path d="M217 30A398 398 0 0 0 6 106l-6 5 12 14 13 15c1 1 3 0 6-2a322 322 0 0 1 341-36s-2 2-5 2l-15 7a110 110 0 1 0 150 52c-10-23-37-49-73-73a350 350 0 0 0-213-60zm202 111a70 70 0 1 1-34 135 70 70 0 0 1 34-135z"/>
    <path d="M98 194c-36 4-70 28-86 60-15 30-16 65-2 94 11 24 38 51 76 76 89 59 191 74 296 43 44-12 93-36 124-61l6-5-12-14-13-15c-1-1-3 0-6 2l-15 11a355 355 0 0 1-227 56 307 307 0 0 1-99-31l6-3a113 113 0 0 0 71-76c2-9 2-12 2-27 0-14 0-18-2-25a109 109 0 0 0-96-85H98zm29 42a70 70 0 0 1 4 134c-10 3-26 4-37 1-21-5-36-17-46-36-6-11-7-18-7-31-1-13 1-21 6-31 15-30 49-46 80-37z"/>
  </symbol>
  <symbol class="sie sie-zodiac-capricorn" id="zodiac-capricorn" viewBox="0 0 512 512">
    <path
      d="M0 20v20h3l12 2c20 5 37 22 42 42 2 8 2 12 2 140v131h40V230c1-140 0-129 8-146 8-16 19-28 36-36 12-6 19-8 34-8s21 2 34 8c16 8 28 19 36 35 8 17 7 9 8 119l2 107c6 28 16 52 34 73l7 10-5 9c-8 13-21 30-31 40a95 95 0 0 1-58 31h-6v40h3c14 0 33-5 49-13 26-13 50-36 72-69l7-12 4 3c6 4 23 12 34 15 24 8 48 11 67 7 37-6 65-32 75-69 3-10 3-33 1-43a95 95 0 0 0-124-67c-16 7-33 21-45 38a234 234 0 0 0-24 49c-2 0-12-20-15-30-7-19-6-13-7-122l-1-99-2-10c-6-22-16-39-32-55a116 116 0 0 0-167 0L83 45l-4-5c-6-8-20-21-28-26C36 6 24 2 8 0H0v20zm429 279c21 4 39 22 42 44 5 29-15 56-43 61-13 2-32 0-49-6-7-2-24-11-29-14l-2-2 8-20c10-23 11-26 18-36 14-22 32-31 55-27z"/>
  </symbol>
  <symbol class="sie sie-zodiac-gemini" id="zodiac-gemini" viewBox="0 0 512 512">
    <path d="M8 16c-9 24-9 21 4 25 33 10 59 17 98 23l22 4v376h-3l-15 3A863 863 0 0 0 1 475a272 272 0 0 0 15 36l41-11a850 850 0 0 1 439 12c2 0 3-3 8-16l7-19c0-3 0-3-13-7a744 744 0 0 0-117-26h-2V256l1-188 52-9c32-6 79-20 79-22L498 0l-9 3a789 789 0 0 1-218 33A814 814 0 0 1 16 1c-1-1-3 3-8 15zm185 58c32 3 103 2 139-1h7v367l-8-1c-40-4-99-4-149 0h-9V72l3 1 17 1z"/>
  </symbol>
  <symbol class="sie sie-zodiac-leo" id="zodiac-leo" viewBox="0 0 512 512">
    <path d="M287 1a144 144 0 0 0-117 80c-12 24-16 42-15 71 1 18 3 29 10 55l4 15-8-2c-35-12-75-1-101 26a97 97 0 0 0-25 41c-2 9-2 11-2 28s0 19 2 28a103 103 0 0 0 72 70c12 2 37 2 48-1a103 103 0 0 0 66-53c7-13 9-23 10-40 1-24-3-42-19-94-15-48-18-62-17-84 1-16 3-26 9-40 12-25 37-47 64-56a106 106 0 0 1 135 75c3 10 3 42 1 55-7 33-21 56-60 105-29 36-39 50-49 70a126 126 0 0 0-4 106c5 11 9 16 18 25 13 14 29 23 48 28 11 3 36 3 47 0a103 103 0 0 0 66-53c5-10 9-23 10-35v-9h-40v5c0 14-10 33-23 42a60 60 0 0 1-96-52c1-19 6-34 18-53 7-12 13-21 37-50 30-38 40-52 52-76 14-30 19-54 18-86A147 147 0 0 0 287 1zM144 256c22 5 40 22 45 44 2 7 2 23 1 30-7 25-28 43-54 45-11 1-20-1-31-7-15-7-27-21-31-38-2-7-2-23 0-30 8-31 39-50 70-44z"/>
  </symbol>
  <symbol class="sie sie-zodiac-libra" id="zodiac-libra" viewBox="0 0 512 512">
    <path d="M235 39a178 178 0 0 0-113 297H0v40h197v-33l-9-5c-13-8-22-15-32-26a131 131 0 0 1-38-96 129 129 0 0 1 42-99 138 138 0 0 1 233 74c2 12 2 39 0 51-9 41-32 73-68 95l-10 6v33h197v-40h-61l-61-1 4-5 11-14A178 178 0 0 0 260 39h-25zM0 455v20h512v-40H0v20z"/>
  </symbol>
  <symbol class="sie sie-zodiac-pisces" id="zodiac-pisces" viewBox="0 0 512 512">
    <path d="M95 13 80 27l7 9c35 50 58 117 64 191v9H83v40h68v11c-3 40-12 83-27 120a328 328 0 0 1-43 77l14 14 14 14 4-4c19-23 39-60 53-98 13-35 23-83 25-121v-13h130v13c2 38 12 84 25 120 14 38 34 77 54 100l3 3 14-13 14-14-6-10c-35-46-59-118-64-188v-11h66v-40h-66v-2l2-18a372 372 0 0 1 69-189l-15-14-14-13-3 3a441 441 0 0 0-79 221v12H191v-5c0-18-6-61-13-87-13-54-39-108-66-141l-3-3-14 13z"/>
  </symbol>
  <symbol class="sie sie-zodiac-sagittarius" id="zodiac-sagittarius" viewBox="0 0 512 512">
    <path d="M255 20v20h189L310 174 177 307l-43-43-43-43-14 14-14 14 43 43 43 43-19 19-74 74-55 56 14 14 14 14 74-74 74-74 43 42 43 43 14-14 14-14-43-42-42-43L471 69l1 94v94h40V0H255v20z"/>
  </symbol>
  <symbol class="sie sie-zodiac-scorpio" id="zodiac-scorpio" viewBox="0 0 512 512">
    <path d="M0 20v20l7 1c10 1 21 7 28 13 6 7 12 18 13 26l1 160v154h40V239c0-170 0-160 6-173 8-17 30-28 50-25 15 2 29 12 36 25 6 12 6 3 6 173v155h39l1-157c0-128 1-158 2-161 6-18 22-32 40-35 19-4 40 7 50 25 6 12 6 5 6 165 0 158 0 151 6 166 4 11 9 18 18 28 8 7 12 10 19 13 14 8 21 9 45 10h21l-18 18-17 18 14 14 14 14 42-43 43-43-42-42-43-43-14 15-14 14 18 19 19 18-17 1c-20 0-26-1-35-6-7-4-11-10-15-18l-3-7-1-151c0-150 0-151-3-158-9-34-32-57-64-65-7-2-11-2-22-2s-15 0-21 2c-16 4-30 12-41 23l-7 7-6-6a90 90 0 0 0-78-26c-18 3-32 11-46 24l-8 7-7-6A88 88 0 0 0 8 0H0v20z"/>
  </symbol>
  <symbol class="sie sie-zodiac-taurus" id="zodiac-taurus" viewBox="0 0 512 512">
    <path d="M33 20v20h9c24 2 42 11 57 26 7 8 14 18 26 38a212 212 0 0 0 52 66l-6 3a181 181 0 0 0-94 136 180 180 0 1 0 258-139l6-5c14-11 26-27 46-60l19-30c16-22 37-33 64-35h9V0h-4a122 122 0 0 0-106 59l-17 27c-16 25-21 33-31 43a76 76 0 0 1-46 21c-23 4-49 1-64-7-19-10-29-22-54-63-24-40-42-58-68-69C75 4 53 0 38 0h-5v20zm251 175c28 6 50 18 71 39 12 12 19 21 26 36 10 20 14 38 14 62 0 30-7 54-23 79-7 10-27 30-37 37a140 140 0 1 1-51-253z"/>
  </symbol>
  <symbol class="sie sie-zodiac-virgo" id="zodiac-virgo" viewBox="0 0 512 512">
    <path d="M4 20v19l8 2c16 2 29 12 36 27l4 8 1 159v159h41V235l1-159 4-8c8-17 25-28 44-28 21 0 41 16 47 36l1 161v157h41V238c0-154 0-157 2-163 4-13 14-24 26-30 25-12 54-1 66 26l3 5v158l1 157 2 11 3 13c1 1-4 6-18 20a1805 1805 0 0 1-43 40l12 16 12 14 3-2 43-39 11-10 4 5c12 17 34 33 54 42 14 6 36 11 49 11h5v-40h-8a99 99 0 0 1-74-44c-1-3-2-2 15-21a417 417 0 0 0 106-190c2-14 1-36-1-46-5-28-27-53-54-64-12-4-18-5-32-5-19 0-29 3-48 13l-1-18-3-27c-5-27-26-52-52-63-13-5-19-6-35-6-13 0-16 0-23 2-16 5-26 11-38 23l-8 7-3-3c-4-7-17-16-28-21-14-7-22-8-39-8-12 0-15 0-22 2l-17 7c-9 4-21 14-26 20l-2 3-4-4C61 18 41 6 26 3L11 0H4v20zm426 122c9 3 16 6 23 14 12 12 15 20 14 42-2 49-32 107-89 173l-7 9-1-99c0-96 0-99 2-105 7-25 33-39 58-34z"/>
  </symbol>

  <!-- define view locations for each icon -->
  <use xlink:href="#astrology-earth" fill="currentColor" width="16" height="16" x="0" y="0" id="pre_astrology-earth"></use>
  <view id="sView-astrology-earth" fill="currentColor" viewBox="0 0 16 16" />

  <use xlink:href="#astrology-mercury" width="16" height="16" x="0" y="17" id="pre_astrology-mercury"></use>
  <view id="sView-astrology-mercury" viewBox="0 17 16 16" />

  <use xlink:href="#astrology-neptune" width="16" height="16" x="0" y="34" id="pre_astrology-neptune"></use>
  <view id="sView-astrology-neptune" viewBox="0 34 16 16" />

  <use xlink:href="#astrology-sun" fill="currentColor" width="16" height="16" x="0" y="51" id="pre_astrology-sun"></use>
  <view id="sView-astrology-sun" fill="var(--cColor, black)" viewBox="0 51 16 16" />

  <use xlink:href="#celtic-rune" width="16" height="16" x="0" y="68" id="pre_celtic-rune"></use>
  <view id="sView-celtic-rune" viewBox="0 68 16 16" />

  <use xlink:href="#celtic-rune2" width="16" height="16" x="0" y="85" id="pre_celtic-rune2"></use>
  <view id="sView-celtic-rune2" viewBox="0 85 16 16" />

  <use xlink:href="#celtic-rune3" width="16" height="16" x="0" y="102" id="pre_celtic-rune3"></use>
  <view id="sView-celtic-rune3" viewBox="0 102 16 16" />

  <use xlink:href="#celtic-rune4" width="16" height="16" x="0" y="119" id="pre_celtic-rune4"></use>
  <view id="sView-celtic-rune4" viewBox="0 119 16 16" />

  <use xlink:href="#celtic-rune5" width="16" height="16" x="0" y="136" id="pre_celtic-rune5"></use>
  <view id="sView-celtic-rune5" viewBox="0 136 16 16" />

  <use xlink:href="#elemental2-air" width="16" height="16" x="0" y="153" id="pre_elemental2-air"></use>
  <view id="sView-elemental2-air" viewBox="0 153 16 16" />

  <use xlink:href="#elemental2-earth" width="16" height="16" x="0" y="170" id="pre_elemental2-earth"></use>
  <view id="sView-elemental2-earth" viewBox="0 170 16 16" />

  <use xlink:href="#elemental2-fire" width="16" height="16" x="0" y="187" id="pre_elemental2-fire"></use>
  <view id="sView-elemental2-fire" viewBox="0 187 16 16" />

  <use xlink:href="#elemental2-water" width="16" height="16" x="0" y="204" id="pre_elemental2-water"></use>
  <view id="sView-elemental2-water" viewBox="0 204 16 16" />

  <use xlink:href="#elemental-air" width="16" height="16" x="0" y="221" id="pre_elemental-air"></use>
  <view id="sView-elemental-air" viewBox="0 221 16 16" />

  <use xlink:href="#elemental-earth" width="16" height="16" x="0" y="238" id="pre_elemental-earth"></use>
  <view id="sView-elemental-earth" viewBox="0 238 16 16" />

  <use xlink:href="#elemental-fire" width="16" height="16" x="0" y="255" id="pre_elemental-fire"></use>
  <view id="sView-elemental-fire" viewBox="0 255 16 16" />

  <use xlink:href="#elemental-water" width="16" height="16" x="0" y="272" id="pre_elemental-water"></use>
  <view id="sView-elemental-water" viewBox="0 272 16 16" />

  <use xlink:href="#illuminati-all-seeing-eye" width="16" height="16" x="0" y="289" id="pre_illuminati-all-seeing-eye"></use>
  <view id="sView-illuminati-all-seeing-eye" viewBox="0 289 16 16" />

  <use xlink:href="#illuminati-eye-hand" width="16" height="16" x="0" y="306" id="pre_illuminati-eye-hand"></use>
  <view id="sView-illuminati-eye-hand" viewBox="0 306 16 16" />

  <use xlink:href="#religion-ankh" width="16" height="16" x="0" y="323" id="pre_religion-ankh"></use>
  <view id="sView-religion-ankh" viewBox="0 323 16 16" />

  <use xlink:href="#religion-bell" width="16" height="16" x="0" y="340" id="pre_religion-bell"></use>
  <view id="sView-religion-bell" viewBox="0 340 16 16" />

  <use xlink:href="#religion-candles" width="16" height="16" x="0" y="357" id="pre_religion-candles"></use>
  <view id="sView-religion-candles" viewBox="0 357 16 16" />

  <use xlink:href="#religion-cauldron" width="16" height="16" x="0" y="374" id="pre_religion-cauldron"></use>
  <view id="sView-religion-cauldron" viewBox="0 374 16 16" />

  <use xlink:href="#religion-crystal" width="16" height="16" x="0" y="391" id="pre_religion-crystal"></use>
  <view id="sView-religion-crystal" viewBox="0 391 16 16" />

  <use xlink:href="#religion-incense-burner" width="16" height="16" x="0" y="408" id="pre_religion-incense-burner"></use>
  <view id="sView-religion-incense-burner" viewBox="0 408 16 16" />

  <use xlink:href="#religion-knife" width="16" height="16" x="0" y="425" id="pre_religion-knife"></use>
  <view id="sView-religion-knife" viewBox="0 425 16 16" />

  <use xlink:href="#religion-medium" width="16" height="16" x="0" y="442" id="pre_religion-medium"></use>
  <view id="sView-religion-medium" viewBox="0 442 16 16" />

  <use xlink:href="#religion-menorah" width="16" height="16" x="0" y="459" id="pre_religion-menorah"></use>
  <view id="sView-religion-menorah" viewBox="0 459 16 16" />

  <use xlink:href="#religion-palmistry" width="16" height="16" x="0" y="476" id="pre_religion-palmistry"></use>
  <view id="sView-religion-palmistry" viewBox="0 476 16 16" />

  <use xlink:href="#religion-pendulum" width="16" height="16" x="0" y="493" id="pre_religion-pendulum"></use>
  <view id="sView-religion-pendulum" viewBox="0 493 16 16" />

  <use xlink:href="#religion-pentagram" width="16" height="16" x="0" y="510" id="pre_religion-pentagram"></use>
  <view id="sView-religion-pentagram" viewBox="0 510 16 16" />

  <use xlink:href="#religion-potion" width="16" height="16" x="0" y="527" id="pre_religion-potion"></use>
  <view id="sView-religion-potion" viewBox="0 527 16 16" />

  <use xlink:href="#religion-singing-bowl" width="16" height="16" x="0" y="544" id="pre_religion-singing-bowl"></use>
  <view id="sView-religion-singing-bowl" viewBox="0 544 16 16" />

  <use xlink:href="#religion-spirit-board" width="16" height="16" x="0" y="561" id="pre_religion-spirit-board"></use>
  <view id="sView-religion-spirit-board" viewBox="0 561 16 16" />

  <use xlink:href="#religion-tarot" width="16" height="16" x="0" y="578" id="pre_religion-tarot"></use>
  <view id="sView-religion-tarot" viewBox="0 578 16 16" />

  <use xlink:href="#religion-voodoo" width="16" height="16" x="0" y="595" id="pre_religion-voodoo"></use>
  <view id="sView-religion-voodoo" viewBox="0 595 16 16" />

  <use xlink:href="#religion-voodoo-doll" width="16" height="16" x="0" y="612" id="pre_religion-voodoo-doll"></use>
  <view id="sView-religion-voodoo-doll" viewBox="0 612 16 16" />

  <use xlink:href="#religion-yin-yang" width="16" height="16" x="0" y="629" id="pre_religion-yin-yang"></use>
  <view id="sView-religion-yin-yang" viewBox="0 629 16 16" />

  <use xlink:href="#zodiac-aquarius" width="16" height="16" x="0" y="646" id="pre_zodiac-aquarius"></use>
  <view id="sView-zodiac-aquarius" viewBox="0 646 16 16" />

  <use xlink:href="#zodiac-aries" width="16" height="16" x="0" y="663" id="pre_zodiac-aries"></use>
  <view id="sView-zodiac-aries" viewBox="0 663 16 16" />

  <use xlink:href="#zodiac-cancer" width="16" height="16" x="0" y="680" id="pre_zodiac-cancer"></use>
  <view id="sView-zodiac-cancer" viewBox="0 680 16 16" />

  <use xlink:href="#zodiac-capricorn" width="16" height="16" x="0" y="697" id="pre_zodiac-capricorn"></use>
  <view id="sView-zodiac-capricorn" viewBox="0 697 16 16" />

  <use xlink:href="#zodiac-gemini" width="16" height="16" x="0" y="714" id="pre_zodiac-gemini"></use>
  <view id="sView-zodiac-gemini" viewBox="0 714 16 16" />

  <use xlink:href="#zodiac-leo" width="16" height="16" x="0" y="731" id="pre_zodiac-leo"></use>
  <view id="sView-zodiac-leo" viewBox="0 731 16 16" />

  <use xlink:href="#zodiac-libra" width="16" height="16" x="0" y="748" id="pre_zodiac-libra"></use>
  <view id="sView-zodiac-libra" viewBox="0 748 16 16" />

  <use xlink:href="#zodiac-pisces" width="16" height="16" x="0" y="765" id="pre_zodiac-pisces"></use>
  <view id="sView-zodiac-pisces" viewBox="0 765 16 16" />

  <use xlink:href="#zodiac-sagittarius" width="16" height="16" x="0" y="782" id="pre_zodiac-sagittarius"></use>
  <view id="sView-zodiac-sagittarius" viewBox="0 782 16 16" />

  <use xlink:href="#zodiac-scorpio" width="16" height="16" x="0" y="799" id="pre_zodiac-scorpio"></use>
  <view id="sView-zodiac-scorpio" viewBox="0 799 16 16" />

  <use xlink:href="#zodiac-taurus" width="16" height="16" x="0" y="816" id="pre_zodiac-taurus"></use>
  <view id="sView-zodiac-taurus" viewBox="0 816 16 16" />

  <use xlink:href="#zodiac-virgo" width="16" height="16" x="0" y="833" id="pre_zodiac-virgo"></use>
  <view id="sView-zodiac-virgo" viewBox="0 833 16 16" />

</svg>
