<?xml version="1.0" standalone="no"?>
<!DOCTYPE svg PUBLIC "-//W3C//DTD SVG 1.1//EN" "http://www.w3.org/Graphics/SVG/1.1/DTD/svg11.dtd" >
<svg xmlns="http://www.w3.org/2000/svg">
<metadata>Generated by IcoMoon</metadata>
<defs>
<font id="sie" horiz-adv-x="1024">
<font-face units-per-em="1024" ascent="960" descent="-64" />
<missing-glyph horiz-adv-x="1024" />
<glyph unicode="&#x20;" horiz-adv-x="512" d="" />
<glyph unicode="&#xe900;" glyph-name="astrology-earth" d="M474 896v-64h-130v-80h130v-98l-10-2c-151.26-21.601-271.182-134.105-303.55-279.591l-0.45-2.409c-4.77-21.978-7.502-47.227-7.502-73.113 0-198.823 161.177-360 360-360s360 161.177 360 360c0 182.781-136.218 333.747-312.676 356.917l-1.822 0.195h-4v98h130v80h-130v128h-80v-64zM568 570c56-12 100-36 140-78 50.618-46.909 82.197-113.746 82.197-187.959 0-3.531-0.072-7.046-0.213-10.543l0.016 0.501c0-58-14-106-46-156-14-20-54-60-74-74-44.097-30.339-98.653-48.456-157.441-48.456-154.64 0-280 125.36-280 280s125.36 280 280 280c19.622 0 38.773-2.018 57.257-5.859l-1.816 0.316z" />
<glyph unicode="&#xe901;" glyph-name="astrology-mercury" d="M310 946l-36-16-4-2 8-16c21.165-39.609 50.161-72.441 85.148-97.422l0.852-0.578-14-10c-36-20-78-58-102-92-24-38-42-84-52-126-3.096-16.768-4.867-36.063-4.867-55.771 0-160.493 117.417-293.561 271.034-317.989l1.832-0.24h8v-96h-100v-80h100v-100h80v100h100v80h-100v96l8 2c70.299 10.207 131.629 42.694 177.95 89.949l0.050 0.051c57.968 57.918 93.825 137.958 93.825 226.373 0 122.565-68.906 229.036-170.093 282.788l-1.732 0.839 12 10c26 20 60 58 76 92l6 12-8 4c-38.168 15.103-59.918 24.522-81.501 34.244l15.501-6.244-6-14c-31.848-57.584-92.222-95.929-161.553-95.929-68.527 0-128.305 37.461-159.971 93.023l-0.475 0.906-10 16-32-14zM562 764c108.998-24.164 189.304-119.996 189.304-234.585 0-105.101-67.558-194.423-161.618-226.909l-1.686-0.507c-22.877-7.977-49.248-12.585-76.696-12.585-132.548 0-240 107.452-240 240s107.452 240 240 240c17.96 0 35.458-1.973 52.292-5.713l-1.596 0.298z" />
<glyph unicode="&#xe902;" glyph-name="astrology-neptune" d="M130 826l2-154c18.336-177.007 154.543-317.31 327.967-341.765l2.033-0.235h10v-174h-140v-80h140v-140h80v140h140v80h-140v86l2 88c178.839 21.206 318.925 162.66 337.855 340.318l0.145 1.682 2 154v134h-80v-144c-2-142-2-146-6-166-26.314-119.54-119.801-211.688-238.035-235.667l-1.965-0.333-16-4v550h-80v-550l-20 4c-118 24-210 116-236 238-4 18-4 26-6 164v144h-80v-134z" />
<glyph unicode="&#xe903;" glyph-name="astrology-sun" d="M474 958l-26-2c-231.465-31.433-412.568-212.536-443.703-441.329l-0.297-2.671c-2.762-19.859-4.338-42.804-4.338-66.117 0-141.772 58.305-269.926 152.244-361.792l0.094-0.092c91.741-89.206 217.14-144.213 355.387-144.213 281.665 0 510 228.335 510 510 0 254.626-186.6 465.669-430.512 503.842l-2.875 0.371c-20 4-94 6-110 4zM552 878c139.786-14.446 258.772-92.423 328.926-204.166l1.074-1.834c38.211-63.331 60.818-139.808 60.818-221.564 0-239.692-194.308-434-434-434-12.96 0-25.788 0.568-38.46 1.681l1.642-0.116c-215.589 26.417-380.912 208.386-380.912 428.969 0 238.587 193.413 432 432 432 10.173 0 20.264-0.352 30.261-1.043l-1.349 0.075zM482 564c-22-6-36-14-54-32s-26-32-32-56c-8-28-4-58 10-84 8-16 34-42 50-50 26-14 56-18 84-10 24 6 38 14 56 32s26 32 32 56c8 28 4 58-10 84-8 16-34 42-50 50-26 14-58 18-86 10zM534 482c12-8 18-18 18-34s-6-26-18-34-32-8-42 0c-16 10-22 28-18 46 2 10 14 22 24 26 10 2 28 0 36-4z" />
<glyph unicode="&#xe904;" glyph-name="celtic-rune" d="M218 956c-22-6-36-14-54-32s-26-32-32-56c-4-14-4-22-4-420s0-406 4-420c6-24 14-38 32-56s32-26 56-32c14-4 22-4 292-4s278 0 292 4c24 6 38 14 56 32s26 32 32 56c4 14 4 22 4 420s0 406-4 420c-6 24-14 38-32 56s-32 26-56 32c-14 4-22 4-292 4-268 0-280 0-294-4zM796 874l14-12 6-8v-812l-6-6-12-14-8-6h-556l-8 6-12 14-4 6-2 402 2 408c2 10 16 24 24 26l282 2 274-2 6-4zM368 448v-352h80v154l120 120 118 120-56 56-182-182v138l120 120 118 120-28 28-28 30-90-92-92-92v184h-80v-352z" />
<glyph unicode="&#xe905;" glyph-name="celtic-rune2" d="M218 956c-22-6-36-14-54-32s-26-32-32-56c-4-14-4-22-4-420s0-406 4-420c6-24 14-38 32-56s32-26 56-32c14-4 22-4 292-4s278 0 292 4c24 6 38 14 56 32s26 32 32 56c4 14 4 22 4 420s0 406-4 420c-6 24-14 38-32 56s-32 26-56 32c-14 4-22 4-292 4-268 0-280 0-294-4zM796 874l14-12 6-8v-812l-6-6-12-14-8-6h-556l-8 6-12 14-4 6-2 402 2 408c2 10 16 24 24 26l282 2 274-2 6-4zM368 448v-352h80v572l94-96 96-94 28 28 28 30-132 132-134 132h-60v-352z" />
<glyph unicode="&#xe906;" glyph-name="celtic-rune3" d="M218 956c-22-6-36-14-54-32s-26-32-32-56c-4-14-4-22-4-420s0-406 4-420c6-24 14-38 32-56s32-26 56-32c14-4 22-4 292-4s278 0 292 4c24 6 38 14 56 32s26 32 32 56c4 14 4 22 4 420s0 406-4 420c-6 24-14 38-32 56s-32 26-56 32c-14 4-22 4-292 4-268 0-280 0-294-4zM796 874l14-12 6-8v-812l-6-6-12-14-8-6h-556l-8 6-12 14-4 6-2 402 2 408c2 10 16 24 24 26l282 2 274-2 6-4zM348 448v-352h56l92 56 140 86 50 30v46l-50 30-168 104 110 66 108 64v24l-2 26-142 86-138 86h-56v-352zM500 646l70-42-72-44-70-42v172l72-44zM500 334l68-42-138-86-2 84 2 86 70-42z" />
<glyph unicode="&#xe907;" glyph-name="celtic-rune4" d="M218 956c-22-6-36-14-54-32s-26-32-32-56c-4-14-4-22-4-420s0-406 4-420c6-24 14-38 32-56s32-26 56-32c14-4 22-4 292-4s278 0 292 4c24 6 38 14 56 32s26 32 32 56c4 14 4 22 4 420s0 406-4 420c-6 24-14 38-32 56s-32 26-56 32c-14 4-22 4-292 4-268 0-280 0-294-4zM796 874l14-12 6-8v-812l-6-6-12-14-8-6h-556l-8 6-12 14-4 6-2 402 2 408c2 10 16 24 24 26l282 2 274-2 6-4zM288 448v-352h80v284l72 72 70 72 72-72 72-70v-286h80v704h-60l-162-162-82 80-80 82h-62v-352zM412 624l42-44-86-86v172l44-42zM654 580v-86l-42 44-44 42 42 44 44 42v-86z" />
<glyph unicode="&#xe908;" glyph-name="celtic-rune5" d="M218 956c-22-6-36-14-54-32s-26-32-32-56c-4-14-4-22-4-420s0-406 4-420c6-24 14-38 32-56s32-26 56-32c14-4 22-4 292-4s278 0 292 4c24 6 38 14 56 32s26 32 32 56c4 14 4 22 4 420s0 406-4 420c-6 24-14 38-32 56s-32 26-56 32c-14 4-22 4-292 4-268 0-280 0-294-4zM796 874l14-12 6-8v-812l-6-6-12-14-8-6h-556l-8 6-12 14-4 6-2 402 2 408c2 10 16 24 24 26l282 2 274-2 6-4zM288 448v-350h66l78 136 80 136 156-272h66v702h-68l-76-134-78-132c-2-2-38 58-80 132l-76 134h-68v-352zM420 528l44-80-94-160c-1.351 40.336-2.121 87.754-2.121 135.353 0 66.348 1.496 132.347 4.455 197.965l-0.334-9.318 48-84zM654 368v-82l-48 82c-38 64-48 82-46 86l48 82 46 80v-248z" />
<glyph unicode="&#xe909;" glyph-name="elemental2-air" d="M0 778v-40h1024v82h-1024v-42zM0 556v-40h1024v82h-1024v-42zM0 336v-40h1024v82h-1024v-42zM0 116v-40h1024v82h-1024v-42z" />
<glyph unicode="&#xe90a;" glyph-name="elemental2-earth" d="M156 826l-138-130-18-18 26-26c14-16 28-28 30-28l108 100 112 104c4 2 14-8 120-106l116-108 116 108 120 108c78.648-70.811 150.311-138.675 220.261-208.26l-0.261 0.26 30 28 26 28-6 6-102 98-170 160-116-110-118-108c-85.031 74.989-161.233 145.491-235.767 217.704l1.767-1.704-122-114zM146 594l-138-132-8-6 28-30 28-28 222 210c84.735-74.279 160.944-144.787 235.263-217.226l-1.263 1.226c85.021 74.973 161.224 145.475 235.755 217.692l-1.755-1.692c80.849-71.299 153.805-139.189 224.945-208.924l-0.945 0.924 28 28 26 28-278 262c-85.021-74.973-161.224-145.475-235.755-217.692l1.755 1.692c-84.735 74.279-160.944 144.787-235.263 217.226l1.263-1.226-132-124zM144 374l-140-130-4-6 56-56 110 104 112 104c85.235-75.398 161.435-145.899 236.080-217.999l-2.080 1.999c84.627 73.953 160.838 144.464 235.045 217.018l-1.045-1.018 112-104 110-104 34 34 22 24-124 116-138 132-16 14-234-218c-86.949 78.986-163.14 150.112-238.409 222.194l4.409-4.194-136-128zM138 150l-138-130 28-30 26-28 6 4c82.584 76.822 153.575 144.014 224.028 211.761l-6.028-5.761c85.499-75.87 161.694-146.366 236.451-218.346l-2.451 2.346 118 108 116 108 112-106 112-104 26 28 28 30-278 260-202-186-32-30-234 218-140-132z" />
<glyph unicode="&#xe90b;" glyph-name="elemental2-fire" d="M146 950c-46-38-84-110-98-182-6-32-8-92-4-120 10-60 34-110 106-230 46-76 68-122 78-154 7.592-23.026 11.971-49.531 11.971-77.057 0-66.886-25.853-127.733-68.111-173.095l0.14 0.152-14-12 22-30c10-18 22-32 24-34s4 0 22 18c34 34 60 74 74 120 20 54 26 126 16 178-8 34-26 80-52 124l-52 90c-52 88-72 126-84 170-6 28-8 74-2 110 7.983 58.157 35.601 108.739 75.833 145.848l0.167 0.152-22 34-22 32-12-10zM368 950c-46-38-84-110-98-182-6-32-8-92-4-120 10-60 34-112 104-230 60-100 82-146 90-188 4-22 2-74-4-100-12-48-32-86-62-116l-14-14 22-30 24-32c2-2 4 0 22 18 56.996 57.751 92.198 137.133 92.198 224.736 0 3.961-0.072 7.905-0.215 11.832l0.016-0.568c2 48 0 60-12 96-16 46-32 78-92 178-54 90-74 128-86 172-6 24-8 70-4 100 8 56 28 104 62 138l16 18-22 34-22 32-12-10zM588 950c-36-30-68-82-86-134-14-42-18-74-18-122 0-80 20-132 106-276 60-100 82-146 90-188 1.927-11.892 3.028-25.599 3.028-39.564 0-68.182-26.245-130.234-69.183-176.606l0.155 0.17-14-14 22-30 22-32c4-2 6 0 24 18 44 46 74 100 88 164 6 38 8 94 2 126-6 28-14 56-28 86s-28 58-74 134c-54 90-74 128-86 172-6 24-8 70-4 100 8 56 28 104 62 138l16 18-22 34-22 32-12-10zM808 950c-42-36-80-102-94-166-10-40-12-100-8-136 10-60 34-112 104-230 60-98 82-146 90-188 1.927-11.892 3.028-25.599 3.028-39.564 0-68.182-26.245-130.234-69.183-176.606l0.155 0.17-14-14 22-30 22-32c4-2 6 0 24 18 57.377 60.736 92.649 142.887 92.649 233.275 0 35.218-5.355 69.186-15.294 101.133l0.646-2.409c-14 46-32 80-88 172-78 130-94 172-94 236-0.15 3.287-0.235 7.141-0.235 11.014 0 73.538 30.766 139.889 80.129 186.885l0.106 0.1-22 34-22 32-12-10z" />
<glyph unicode="&#xe90c;" glyph-name="elemental2-water" d="M222 916c-40-4-82-16-116-32s-74-44-96-70l-10-12 32-22 34-22 16 14c18 18 28 26 52 38 42 20 84 28 136 28 28-2 36-2 52-6 44-12 82-32 172-84l88-52c54.027-35.119 120.117-56.003 191.085-56.003 22.954 0 45.397 2.185 67.133 6.357l-2.219-0.355c66 14 120 42 166 88 18 18 20 20 18 24l-32 22-30 22-16-16c-46-44-106-66-176-66-30 0-44 2-72 12-34 10-78 34-156 82-104 62-160 86-214 100-14 2-86 4-104 2zM222 694c-60-6-116-26-158-54-20-14-42-34-54-48l-10-12 32-22 34-22 18 16c34 34 82 54 138 62 30 4 76 2 100-4 44-12 82-32 172-86 100-60 132-76 178-90 36-14 48-16 98-14 38 0 46 0 68 4 68 14 120 44 166 88 18 18 20 20 18 24l-32 22-30 22-16-16c-36-34-80-54-132-62-24-4-68-4-86 0-44 8-88 30-184 88s-132 76-180 90c-36 12-48 14-92 16l-48-2zM222 474c-84-8-168-48-212-102l-10-12 32-22 34-22 18 16c36 34 82 54 140 62 28 4 74 2 98-4 44-12 82-32 172-86 76-46 104-60 134-74 32-14 58-22 86-28 32-6 88-4 126 2 66 14 120 44 164 88 18 18 20 20 18 22l-32 24-30 22-16-16c-36-34-80-54-132-64h-86c-44 10-88 32-184 90-118 70-170 94-228 102-18 4-72 4-92 2zM254 256c-95.577-1.409-181.66-40.913-243.966-103.966l-0.034-0.034-10-12 32-22 34-22 16 14c44 44 108 66 182 66 64 0 106-16 236-94 90-56 130-76 174-90 34-12 48-14 96-12 38 0 46 0 68 4 68 14 120 44 166 88 18 18 20 20 18 24l-32 22-30 22-16-16c-48-44-106-66-178-66-60 0-100 16-224 90-74 46-110 64-142 78-54 24-96 32-146 30z" />
<glyph unicode="&#xe90d;" glyph-name="elemental-air" d="M390 696l-120-220-100-2h-102v-78h80l78-2-112-210-114-206 256-2h768l-114 208-112 210 80 2h78v78h-202l-120 222-122 222-122-222zM588 614l74-138c-44.684-1.326-97.254-2.081-150-2.081s-105.316 0.755-157.699 2.255l7.699-0.175 150 274 76-136zM798 226l92-168-190-2h-376l-190 2 92 168 92 170h388l92-170z" />
<glyph unicode="&#xe90e;" glyph-name="elemental-earth" d="M6 910l220-408h-158v-80h202l120-222 122-222 122 222 120 222h202v80h-158l220 408 6 10h-1024l6-10zM798 670l-90-168h-390l-92 168-92 170h756l-92-170zM662 420l-150-276-150 276 150 2 150-2z" />
<glyph unicode="&#xe90f;" glyph-name="elemental-fire" d="M256 448l-256-470 256-2h768l-256 472-256 470-256-470zM702 404l188-346-190-2h-376l-190 2 188 346 190 346 190-346z" />
<glyph unicode="&#xe910;" glyph-name="elemental-water" d="M2 916c-547.194 1102.338-377.705 795.504-208.785 488.314l718.785-1426.314c11.219-5.108 180.747 301.789 347.735 610.263l164.265 331.737h-1024l2-4zM702 492l-190-348-190 348-188 348h756l-188-348z" />
<glyph unicode="&#xe911;" glyph-name="illuminati-all-seeing-eye" d="M256 448l-256-472h1024l-256 472-256 470-256-470zM592 608l90-168 12-24-12 10c-84 64-172 84-260 54-20-6-50-20-68-32l-10-6 12 24 156 286 80-144zM432 390c-6.293-11.167-10-24.515-10-38.73 0-44.183 35.817-80 80-80s80 35.817 80 80c0 14.215-3.707 27.563-10.208 39.132l0.208-0.402-2 10c36.43-17.013 67.542-39.17 93.964-65.963l0.036-0.037 20-18-4-6-54-48c-30-22-66-38-96-44-22-4-58-2-78 4-53.070 19.879-97.593 52.173-131.575 93.468l-0.425 0.532c32.081 33.849 69.787 61.972 111.69 82.953l2.31 1.047-2-10zM828 168l62-112h-756l4 6 110 204c2 4 2 4 24-18 74-76 150-112 228-112 30 0 54 4 82 12 54 20 106 54 158 110l26 24 62-114z" />
<glyph unicode="&#xe912;" glyph-name="illuminati-eye-hand" d="M566 956c-28-6-60-30-72-54-6-8-8-12-10-10l-16 4c-26 4-48 2-74-10-30-16-54-46-60-78-4-10-4-48-4-224 0-230 0-220-12-238l-12-12-8-2-36 32c-48 44-52 48-68 56-48 22-100 14-138-24-21.917-21.443-35.507-51.321-35.507-84.373 0-12.725 2.014-24.979 5.741-36.461l-0.234 0.835c8-28 10-32 126-142 118-112 124-118 154-138 40-26 82-44 126-54l22-6h360l18 6c42 12 72 28 100 54 38 38 62 84 70 134l2 294c0 306 0 292-14 320-20.008 36.555-58.205 60.93-102.094 60.93-9.186 0-18.122-1.068-26.692-3.086l0.786 0.156-10-2c-14 40-32 60-62 76-26 12-52 14-84 6-4 0-6 0-14 16-19.514 36.443-57.327 60.813-100.832 60.813-8.922 0-17.605-1.025-25.938-2.964l0.77 0.151zM604 878c6-4 16-12 20-20l2-202v-194h80v158c0 176 0 168 12 180 14 10 30 10 44 0 12-12 12-4 12-180v-158h80v116c0 126 0 124 10 136 12 12 36 14 50 2 10-10 10 4 10-294 0-308 0-290-14-324-16-32-36-52-68-68-32-14-28-14-210-14-176 0-176 0-212 12-24 8-58 26-80 42-20 14-228 212-236 222-6 10-4 30 2 42 6 10 16 16 28 18 18 2 22 0 74-48 58-50 62-52 88-52 44 0 84 30 104 78 10 26 10 22 10 250 0 206 0 210 4 218 10 20 34 26 52 12 12-12 12-4 12-184v-164h80v194l2 202c8 18 26 26 44 20zM608 380c-40-6-80-26-118-58-34-26-84-86-80-92 6-10 38-48 58-66 66-64 138-92 206-80 52 10 100 36 148 84 28 28 54 62 52 66-6 12-32 42-52 62-38 38-72 62-110 76-36 12-70 14-104 10zM584 286l-2-22c0-14 0-18 4-28 6-12 18-22 30-28s36-6 52 0c26 12 42 44 34 72l-4 10 12-6c14-8 36-24 50-40l12-10-12-12c-29.597-33.088-70.838-55.224-117.231-59.937l-0.769-0.063c-26 0-62 14-88 32l-42 38c20.155 23.987 44.781 43.499 72.689 57.409l1.311 0.591-2-4z" />
<glyph unicode="&#xe913;" glyph-name="religion-ankh" d="M478 956c-80-14-142-72-160-150-12-46-4-110 24-192l8-24-94-2h-96v-240h232v-412h240v412h232v240h-190l6 22c18 50 30 100 32 138 0.269 3.883 0.422 8.416 0.422 12.984 0 110.457-89.543 200-200 200-12.163 0-24.073-1.086-35.637-3.166l1.215 0.181zM540 876c24-6 38-14 56-32 32-32 40-66 34-116-8-42-26-102-56-174l-20-46h230v-80h-232v-412h-80v412h-232v80h230l-16 38c-40 94-58 156-62 204 0 24 4 44 14 64 8 18 32 42 50 52 26 14 56 18 84 10zM498 798c-8-2-22-16-24-26v-20c2-20 36-148 38-148s18 56 30 108c10 38 12 58 4 68-10 16-30 24-48 18z" />
<glyph unicode="&#xe914;" glyph-name="religion-bell" d="M482 956c-22-6-36-14-54-32-21.803-20.803-35.359-50.084-35.359-82.532 0-9.754 1.225-19.221 3.529-28.257l-0.171 0.789c6-32 32-66 62-80l14-6v-144l-14-2c-32-4-76-24-104-42-64-42-108-110-126-188-6-30-8-54-8-142 0-94 0-104-12-126-6-12-18-24-32-30-8-4-14-6-38-6h-30v-112h808v112h-30c-26 2-30 2-38 6-20 8-32 26-40 52l-4 112c-2 98-2 108-8 138-18 78-64 144-128 186-30 18-70 34-102 40l-14 2v142l14 8c20 10 42 32 52 52 18 36 18 76 0 110-8 16-34 42-50 50-26 14-58 18-86 10zM534 874c12-8 18-18 18-34s-6-26-18-34-32-8-42 0c-16 10-22 28-18 46 2 10 14 22 24 26 10 2 28 0 36-4zM564 502c22-6 52-20 68-32l28-26c24-26 38-48 50-84 12-34 14-52 14-146l2-100c4-32 16-66 34-88l6-10h-254c-200 0-252 0-250 2l8 12c8 12 18 36 24 52l2 14h348v80h-344v60c0 68 2 90 12 122 23.066 77.856 88.447 135.872 168.86 147.86l1.14 0.14c22 2 58 0 80-4z" />
<glyph unicode="&#xe915;" glyph-name="religion-candles" d="M100 942l-18-32c-8-14-8-18-8-30 0-14 6-24 18-32 10-8 30-6 42 0 12 8 18 18 18 34 0 10-2 14-10 28-8 18-28 48-30 48l-12-16zM260 942l-18-32c-8-14-8-18-8-30 0-14 6-24 18-32 10-8 30-6 42 0 12 8 18 18 18 34 0 10-2 14-10 28-8 18-28 48-30 48l-12-16zM420 942l-18-32c-8-14-10-18-10-30 2-14 8-24 20-32 10-8 30-6 42 0 12 8 16 18 16 34 2 10 0 14-8 28-8 18-28 48-30 48l-12-16zM580 942l-18-32c-8-14-8-18-8-30 0-14 6-24 18-32 10-8 30-6 42 0 12 8 16 18 16 34 2 10 0 14-8 28-8 18-28 48-30 48l-12-16zM740 942l-18-32c-8-14-8-18-8-30 0-14 6-24 18-32 10-8 30-6 42 0 12 8 16 18 16 34 2 10 0 14-8 28-8 18-28 48-30 48l-12-16zM900 942l-18-32c-8-14-8-18-8-30 0-14 6-24 18-32 10-8 30-6 42 0 12 8 16 18 16 34 2 10 0 14-8 28-8 18-28 48-30 48l-12-16zM72 368v-432h80v866h-80v-434zM232 368v-432h80v866h-80v-434zM392 368v-432h80v866h-80v-434zM552 368v-432h80v866h-80v-434zM712 368v-432h80v866h-80v-434zM872 368v-432h80v866h-80v-434z" />
<glyph unicode="&#xe916;" glyph-name="religion-cauldron" d="M472 958c-184.253-20.589-332.999-151.814-379.297-324.911l-0.703-3.089-6-22-18-8c-37.752-20.118-63.939-57.602-67.963-101.499l-0.037-0.501v-6h80l2 8c2 18 20 32 38 32 26 0 46-26 38-50-4-12-10-20-30-44-27.058-25.134-44.409-60.397-45.991-99.72l-0.009-0.28c-2-48 14-80 56-128 30-34 80-70 128-94 24-12 26-12 24-16l-32-78-36-80-2-6h88l30 70c28 64 30 70 34 70l72-12 28-4v-124h80v124l28 4c28.252 3.37 53.358 8.284 77.779 14.867l-3.779-0.867h6l30-70 30-72h86l-36 86-36 82 26 14c60 30 112 72 146 118 26 34 34 60 34 100 0 22 0 26-4 40-8 22-20 40-44 68-24 26-26 32-26 50 0 10 0 12 6 20 6 10 20 18 32 18 18 0 36-14 40-32v-8h80v6c0 12-6 34-14 48-8 20-30 42-52 52l-14 8-2 16c-26.489 101.153-83.75 186.33-161.023 247.257l-0.977 0.743c-73.752 56.034-167.113 89.766-268.353 89.766-13.958 0-27.766-0.641-41.397-1.896l1.75 0.13zM552 878c148.683-16.911 268.822-122.239 307.402-261.47l0.598-2.53-346-2h-346l4 10c45.56 150.225 182.808 257.69 345.156 257.69 12.27 0 24.397-0.614 36.351-1.813l-1.508 0.122zM790 528c-12-46-2-86 30-122 36-42 42-52 40-78-2-20-4-24-18-44-54-72-152-122-268-140-24-4-98-4-122 0-106 14-190 54-250 116-28 28-40 48-40 70 0 18 14 36 30 40l182 2h176v80h-316v4l4 20c2 16 2 36-4 52v4h556v-4z" />
<glyph unicode="&#xe917;" glyph-name="religion-crystal" d="M160 800l-160-158v-706h424v80h-126v570h266l56 56-134 142-148 160-16 16-162-160zM416 744l70-76-86-2h-90c16.097 77.84 28.545 129.638 42.021 181.021l-6.021-27.021 70-76zM240 722l-12-56h-88l112 112-12-56zM218 300v-284h-138v568h138v-284zM634 544l-130-124v-484h520v484l-122 114-130 126-10 8-128-124zM844 480l54-50-62-2h-64l18 104 54-52zM698 466l-6-34c-2-4-2-4-32-4h-32l38 34 36 36-6-32zM686 182v-166h-102v332h102v-166zM944 182v-166h-178v332h178v-166z" />
<glyph unicode="&#xe918;" glyph-name="religion-incense-burner" d="M144 958c-81.982-10.991-144.543-80.493-144.543-164.607 0-68.786 41.837-127.8 101.453-152.984l1.090-0.409c24-8 36-10 66-10 60 0 114 18 178 60 28 20 60 44 118 92 82 70 118 94 160 98 14 0 22-2 26-14l4-8h78v8c0 20-12 48-30 64-26 26-58 34-100 28-56-10-104-40-200-120-38-34-74-64-96-78-38-26-76-42-112-48-40-8-66-2-88 22-15.64 15.576-25.318 37.128-25.318 60.94 0 43.021 31.59 78.664 72.839 84.999l0.48 0.061h12v80h-8l-16-2zM882 820l-38-20c-263.064-158.025-484.695-356.075-663.925-588.501l-4.075-5.499-12-14h-164v-62c2-66 2-68 12-96 14-36 52-74 88-88 30-12 0-12 412-12s382 0 412 12c36 14 74 52 88 88 10 28 10 30 12 96v62h-378l-378 2 54 64c170.366 196.829 370.64 362.049 594.86 490.139l11.14 5.861-38 68-8-4zM944 96c-2-16-2-22-8-32-8-18-20-30-38-40l-14-6h-744l-14 6c-18 10-30 22-38 40-6 10-6 16-8 32v18h864v-18zM868 592v-40h80v80h-80v-40zM868 432v-40h80v80h-80v-40z" />
<glyph unicode="&#xe919;" glyph-name="religion-knife" d="M962 930c-249.679-130.637-464.67-284.364-655.575-463.463l-26.425-24.537-24 22c-26 26-42 36-66 42-7.754 1.784-16.658 2.806-25.8 2.806-66.274 0-120-53.726-120-120 0-29.305 10.504-56.156 27.953-76.994l-0.153 0.188 6-8 56 56-4 8c-12 22-4 46 16 56 10 4 24 6 34 2l68-64 60-62-68-68c-60-58-70-68-72-66-16 8-50 12-72 8-24-6-42-16-60-34-18.089-16.914-30.439-39.764-33.936-65.43l-0.064-0.57v-36c4-28 14-46 34-66 38-38 92-46 140-22 30 16 54 46 62 80 4 18 2 46-4 64l-4 14 68 68 66 68 60-60c34-32 62-62 64-66 10-20 0-46-20-56-14-4-30-2-40 6-2 4-6 0-32-24l-28-30 10-8c64-50 160-22 188 54 6 22 8 50 2 72s-16 38-42 64l-22 24 24 24c192.385 205.692 357.146 440.72 486.165 696.839l7.835 17.161-60-28zM826 762l-52-82c-101.676-151.077-208.914-283.086-326.747-404.776l0.747 0.776-56 54-54 56 20 18c138.429 130.893 291.573 249.053 455.846 350.976l12.154 7.024zM136 92c28-12 32-50 6-68-24-18-58-2-62 28 0 8 0 12 4 20 10 20 32 28 52 20z" />
<glyph unicode="&#xe91a;" glyph-name="religion-medium" d="M482 958c-148.784-16.523-263.754-140.493-265.997-291.773l-0.003-0.227-6-54c-16-62-52-110-132-172l-34-28 10-18 20-30c20.962-26.588 44.647-49.638 71.011-69.295l0.989-0.705-14-16c-76-82-124-198-132-316v-26h80v10c4.438 234.059 195.223 422.098 429.927 422.098 48.679 0 95.469-8.089 139.099-22.996l-3.026 0.898c171.133-57.008 293.222-213.637 297.989-399.445l0.011-0.555v-10h80v26c-8.073 122.204-56.722 231.708-132.451 316.514l0.451-0.514-14 16 4 4c34 24 64 56 88 96l10 18-34 28c-80 62-116 110-132 172l-6 54c-1.401 162.408-133.383 293.525-295.99 293.525-10.57 0-21.010-0.554-31.293-1.635l1.283 0.109zM566 874c58-16 108-56 136-108l8-16h-396l6 12c30 60 92 106 162 116 20 4 60 0 84-4zM728 650c-4-36-18-78-38-108-10-16-32-38-48-50-18-14-54-30-76-38-18-4-24-4-54-4s-36 0-52 4c-90.306 23.402-157.098 101.031-163.959 195.29l-0.041 0.71v20h432v-20zM264 502c18-28 44-54 70-74l10-8-6-2c-38-14-74-32-106-54l-22-14-6 2c-12 8-34 24-42 34l-10 10 6 4c37.643 32.883 70.062 70.389 96.753 111.926l1.247 2.074 8-12zM774 504c14-24 46-60 78-92l20-16-10-10c-10-10-30-26-42-32l-6-4-18 12c-36 24-72 42-112 56-4 2-2 4 6 10 31.193 23.548 57.185 52.089 77.241 84.675l0.759 1.325 6-10zM480 284c-58-10-110-54-132-108-18-46-14-98 6-142l10-18h-34v-80h364v80h-34l10 18c12 26 16 46 16 78 0 22 0 30-4 42-19.948 76.928-88.757 132.82-170.621 132.82-11.092 0-21.944-1.026-32.467-2.989l1.088 0.169zM536 204c50-12 82-64 70-114-10-36-36-62-70-72-52-12-104 20-116 70-18 70 46 134 116 116z" />
<glyph unicode="&#xe91b;" glyph-name="religion-menorah" d="M28 942l-18-32c-8-14-10-18-10-30 0-14 8-24 20-32 10-8 30-6 42 0 12 8 18 18 18 34 0 10-2 14-10 28-8 18-28 48-30 48l-12-16zM188 942l-18-32c-8-14-8-18-8-30 0-14 6-24 18-32 10-8 30-6 42 0 12 8 18 18 18 34 0 10-2 14-10 28-8 18-28 48-30 48l-12-16zM344 942l-18-32c-8-14-10-18-10-30 2-14 8-24 20-32 10-8 30-6 42 0 12 8 16 18 16 34 2 10 0 14-8 28-8 18-28 48-30 48l-12-16zM500 942l-18-32c-8-14-10-18-10-30 2-14 8-24 20-32 10-8 30-6 42 0 12 8 16 18 16 34 2 10 0 14-8 28-8 18-28 48-30 48l-12-16zM656 942l-18-32c-8-14-8-18-8-30 0-14 6-24 18-32 10-8 30-6 42 0 12 8 16 18 16 34 2 10 0 14-8 28-8 18-28 48-30 48l-12-16zM812 942l-18-32c-8-14-8-18-8-30 0-14 6-24 18-32 10-8 30-6 42 0 12 8 16 18 16 34 2 10 0 14-8 28-8 18-28 48-30 48l-12-16zM972 942l-18-32c-8-14-8-18-8-30 0-14 6-24 18-32 10-8 30-6 42 0 12 8 16 18 16 34 2 10 0 14-8 28-8 18-28 48-30 48l-12-16zM0 744c2-40 2-66 6-80 31.608-230.311 214.383-409.676 443.676-435.785l2.324-0.215 20-2v-210h-192v-80h464v80h-192v210l20 2c255.981 30.843 452.451 246.74 452.451 508.525 0 7.552-0.164 15.067-0.487 22.539l0.037-1.065v44h-80v-42c0.424-7.166 0.666-15.546 0.666-23.982 0-224.032-170.535-408.234-388.873-429.874l-1.793-0.144-2 38v40l8 2c116.363 17.935 212.939 89.425 265.055 188.040l0.945 1.96c30 60 38 102 38 182v44h-80v-52l-4-68c-24.011-108.248-107.752-191.989-214.124-215.649l-1.876-0.351h-12v74l18 4c60 20 106 66 128 124 8 26 10 44 10 92v42h-80v-40c0-46-2-60-12-82-12-22-40-50-60-56h-4v178h-80v-90c0-88 0-88-4-88-20 6-50 36-60 56-10 22-12 36-12 82v40h-80v-42c0-48 2-66 10-92 20-58 68-104 128-124l18-4v-74h-10l-26 6c-114.32 33.112-196.486 136.86-196.486 259.799 0 5.699 0.177 11.358 0.525 16.969l-0.038-0.769v56h-80v-56c2-60 4-78 14-114 40.794-130.51 152.067-227.053 288.164-245.793l1.836-0.207 8-2v-78h-12c-215.512 28.69-380.036 211.328-380.036 432.393 0 1.971 0.013 3.94 0.039 5.905l-0.003-0.298v56h-80v-58z" />
<glyph unicode="&#xe91c;" glyph-name="religion-palmistry" d="M566 956c-28-6-60-30-72-54-6-8-8-12-10-10l-40 6c-28 0-60-12-80-34-16-16-28-40-32-58l-2-222c0-230 0-220-12-238l-12-12-8-2-18 16-78 66c-17.595 10.697-38.868 17.029-61.62 17.029-19.843 0-38.562-4.816-55.050-13.344l0.67 0.315c-18-8-42-32-52-50-18-34-18-74 0-110 80.99-86.434 163.164-167.341 248.48-244.85l3.52-3.15c44-34 94-58 146-68l22-6h360l18 6c42 12 72 28 100 54 38 38 62 84 70 134l2 294c0 270 0 280-4 294-12 44-42 76-86 84-22 6-38 4-58 0-4-2-6-2-8 6-16.054 46.084-59.13 78.561-109.792 78.561-11.475 0-22.561-1.666-33.029-4.77l0.821 0.209c-4 0-6 2-12 16-19.445 36.675-57.38 61.231-101.052 61.231-9.565 0-18.856-1.178-27.734-3.397l0.785 0.166zM606 876c6-2 12-8 14-12l6-6v-396h80v158c0 176 0 168 12 180 14 10 30 10 44 0 12-12 12-4 12-180v-158h80v234l6 10c6 14 14 18 30 18 14 0 24-4 30-16 4-10 4-10 4-284 0-314 2-292-16-328-19.757-38.982-55.888-67.219-99.094-75.849l-0.906-0.151c-14-4-38-4-174-4l-176 2c-34 4-82 26-118 52-20 14-228 212-234 222-8 10-6 30 0 42 8 10 16 16 28 18 18 2 22 0 76-48 54-50 60-52 86-52 48 0 90 34 108 90l6 14v220c0 166 2 220 4 224l8 10c14 10 30 10 44 0 12-12 12-4 12-184v-164h80v194l2 202 8 10c10 12 24 14 38 8zM480 314v-34l20-10c72-36 120-100 126-170v-14h80v18c-4 50-22 98-52 140-8 10-10 16-8 16 61.007-5.047 117.429-17.108 170.924-35.469l-4.924 1.469 28 72-50 16c-74 20-156 32-254 34h-56v-34z" />
<glyph unicode="&#xe91d;" glyph-name="religion-pendulum" d="M288 958c-74.547-13.021-134.273-65.422-157.583-134.576l-0.417-1.424c-8-28-10-44-10-158v-104l-14-6c-38.844-20.929-64.799-61.313-64.799-107.759 0-21.348 5.483-41.414 15.117-58.869l-0.318 0.629 8-12-14-14c-29.729-29.383-48.141-70.161-48.141-115.24 0-2.378 0.051-4.743 0.153-7.096l-0.011 0.335c2-40 28-98 78-180l80-122c60.983 83.673 114.095 179.259 154.862 281.119l3.138 8.881c0.958 6.536 1.505 14.082 1.505 21.755 0 48.048-21.447 91.087-55.29 120.065l-0.215 0.179-8 6 8 12c20 32 22 78 4 112-12 24-34 46-58 58l-10 4v110c2 106 2 110 6 122 12 38 44 68 82 80 12 4 18 4 54 4 46 0 52 0 76-12 32-16 54-44 62-80 4-14 4-22 4-340 0-350 0-338 10-372 29.697-80.949 106.099-137.663 195.747-137.663 9.255 0 18.369 0.604 27.305 1.776l-1.052-0.113c87.096 7.702 157.964 69.11 179.677 150.575l0.323 1.425 6 18v338l2 336 4 16c16 44 54 74 98 80l18 2v80h-8l-26-4c-80.968-14.265-144.725-74.668-163.713-152.604l-0.287-1.396c-2-10-4-42-4-348v-338l-8-16c-2-10-8-22-12-28-16-24-44-44-72-52-18-4-56-4-74 0-40 12-74 44-88 84-2 10-4 28-4 348v336l-6 20c-10 36-26 62-52 90-36.209 38.496-87.478 62.471-144.347 62.471-4.804 0-9.568-0.171-14.287-0.508l0.634 0.036-60-2zM176 484c28-12 32-52 6-68-16-12-34-10-50 4-10 12-14 26-10 40 8 22 32 34 54 24zM194 320c26-12 44-38 46-66 0-16-6-38-28-82-16-32-50-90-52-90-4 0-62 108-72 136-8 22-8 32-6 46 6 28 26 50 52 60 8 4 16 4 30 4 16-2 20-2 30-8z" />
<glyph unicode="&#xe91e;" glyph-name="religion-pentagram" d="M474 958l-26-2c-231.465-31.433-412.568-212.536-443.703-441.329l-0.297-2.671c-2.295-18.24-3.604-39.348-3.604-60.762 0-283.874 230.126-514 514-514 48.978 0 96.357 6.85 141.229 19.646l-3.625-0.884c213.972 64.595 367.112 259.95 367.112 491.072 0 282.77-229.23 512-512 512-11.65 0-23.21-0.389-34.666-1.155l1.554 0.083zM442 742l-42-134h-144l-144 2 12 26c68.54 136.594 203.089 231.114 360.648 241.926l1.352 0.074-44-136zM600 870c142.397-30.78 256.917-128.147 310.936-257.137l1.064-2.863-144-2h-144l-42 134-44 136c0 2 32-2 62-8zM540 612l26-84h178l-72-52-70-54c20.946-75.863 38.708-131.152 58.103-185.667l-6.103 19.667-72 52-70 50-70-50c-38-30-70-52-72-52 16.984 67.254 34.788 122.6 55.55 176.477l-3.55-10.477-42 32-72 52-28 22h178l26 82 28 84 28-84zM214 476l114-84c-35.988-122.971-67.329-214.71-101.68-304.964l9.68 28.964-26 24c-79.68 78.111-129.072 186.863-129.072 307.152 0 40.147 5.502 79.009 15.793 115.874l-0.721-3.025h2l116-84zM934 540c6.269-27.584 9.862-59.261 9.862-91.778 0-133.256-60.335-252.421-155.177-331.666l-0.685-0.557c-25.151 62.424-56.494 154.165-84.573 247.322l-7.427 28.678c65.529 51.989 141.119 107.229 218.796 159.609l13.204 8.391 6-20zM628 174l118-84c2-4 0-6-16-16-62.2-36.746-137.065-58.456-217-58.456s-154.8 21.71-219.018 59.556l2.018-1.1c-16 10-20 12-18 14l234 170 116-84z" />
<glyph unicode="&#xe91f;" glyph-name="religion-potion" d="M270 890v-70h-60v-80h60v-76h-22c-50-4-92-22-128-58-33.937-33.289-55.683-78.9-57.985-129.579l-0.015-0.421-2-232c2-230 0-214 16-244 10-22 28-40 52-50l32-12 360-2h348l12 6c30 10 56 34 70 60 14 28 12 14 14 242 0 216 0 246-8 274-22.53 81.37-93.667 140.989-179.467 145.975l-0.533 0.025h-20v76h60v80h-60v140h-486v-70zM674 850v-30h-322v60h322v-30zM674 662v-78h58c52-2 58-2 68-6 20-6 32-14 44-26 26-24 38-50 38-88v-22l-8-2c-16-2-28-10-54-34-44-44-56-44-102 0-26 24-38 32-58 36h-38c-20-4-32-12-58-36-44-44-56-44-102 0-26 24-38 32-58 36s-40 2-60-8l-36-28c-44-44-56-44-102 0-26 24-38 32-56 36h-8v22c0 18 2 24 6 38 10 36 36 62 74 76 12 4 14 4 72 6h58v156h322v-78zM410 344c36-36 68-52 102-52 36 0 68 16 104 52 14 14 22 20 26 20l24-20c20-20 38-34 56-42 48-22 96-10 146 36l14 14v-312l-8-8-14-12-8-4h-680l-8 4-14 12-8 8v314l16-14c42-40 82-54 124-46 28 8 50 22 78 50l24 20c4 0 12-6 26-20z" />
<glyph unicode="&#xe920;" glyph-name="religion-singing-bowl" d="M870 958c-26-6-46-16-64-34l-176-198-166-190h-280l-20-16c-24-20-60-56-80-80-112-138-112-270 0-408 20-26 54-60 80-80l20-16h656l16 12c38 30 86 84 114 124 34 52 54 114 54 164s-20 112-54 164c-26 40-72 90-112 122l-16 12-46 2h-46l114 98 124 108c14 14 22 30 30 48 4 14 4 20 4 40 0 22 0 26-4 40-14 42-42 70-82 82-20 8-48 10-66 6zM918 874c16-8 24-22 26-42 0-12-2-16-6-24-4-6-38-38-158-140l-154-132h-56l146 166 152 170c14 8 34 10 50 2zM842 428c52-52 82-100 96-150 6-22 6-62 0-84-14-50-44-98-96-150l-28-28h-602l-22 20c-36 34-68 76-86 110-8 16-18 42-18 48l364 2h362v80h-362l-364 2c22.951 65.341 60.779 120.564 109.582 163.638l0.418 0.362 16 14h602l28-28z" />
<glyph unicode="&#xe921;" glyph-name="religion-spirit-board" d="M488 930c-56-70-136-180-194-266-112.006-144.169-198.109-314.65-247.733-500.045l-2.267-9.955c-4-26-2-76 4-98 14-54 50-94 102-110 24-8 36-10 70-8 26 0 36 0 56 4 42 10 98 30 156 54 20.929 11.136 45.764 17.675 72.127 17.675 23.137 0 45.099-5.037 64.846-14.075l-0.973 0.399c116-48 158-60 216-64 74-4 134 20 168 68 20 28 28 56 30 102 0 36-2 56-12 96-32 130-140 326-306 556-58 82-148 200-152 200l-24-28zM542 790c178-238 296-438 340-572 28-82 26-148-2-176-18-18-42-24-82-24-52 0-88 10-190 52-30.361 15.424-66.204 24.459-104.157 24.459-41 0-79.537-10.544-113.047-29.069l1.204 0.61c-94-40-142-52-186-50-36 4-62 16-74 42-12 22-14 66-4 108 22 116 128 310 294 542l90 122 30-40zM478 572c-60-12-108-60-124-122l-2-40c2-24 2-28 8-44 20.012-61.721 75.346-106.253 141.586-109.981l0.414-0.019c2.684-0.161 5.822-0.252 8.981-0.252 88.366 0 160 71.634 160 160 0 20.963-4.031 40.984-11.361 59.331l0.38-1.079c-24.022 59.916-81.612 101.46-148.906 101.46-11.72 0-23.146-1.26-34.15-3.652l1.056 0.192zM540 490c16-6 34-22 42-40 6-12 6-14 6-34 2-18 0-22-4-32-10-22-28-38-50-44-16-6-30-6-46 0-22 6-40 22-50 44-4 10-6 14-6 32 2 18 2 22 6 32 6 14 22 30 32 36 20 12 48 14 70 6z" />
<glyph unicode="&#xe922;" glyph-name="religion-tarot" d="M116 956c-22-6-36-14-54-32s-26-32-32-56c-4-14-4-22-4-420s0-406 4-420c6-24 14-38 32-56s32-26 56-32c14-4 22-4 394-4s380 0 394 4c24 6 38 14 56 32s26 32 32 56c4 14 4 22 4 420s0 406-4 420c-6 24-14 38-32 56s-32 26-56 32c-14 4-22 4-394 4-368 0-382 0-396-4zM738 874l14-12 6-8v-812l-6-6-12-14-8-6h-600l-8 6-12 14-4 6-2 402 2 408c2 10 16 24 24 26l304 2 296-2 6-4zM900 874l12-14 6-8v-810l-6-6-12-14c-8-4-10-6-38-6h-30l4 14c1.096 89.495 1.72 195.188 1.72 301.027 0 193.035-2.076 385.585-6.207 577.629l0.487-28.656h30c28-2 30-2 38-6zM396 622l-34-60h-66l-66-2c27.256-50.876 48.489-87.487 70.564-123.527l-6.564 11.527-32-58-34-56h134l34-60 36-60 36 60 34 60h134l-34 56-32 58c22.977 45.085 44.237 81.727 67.147 117.204l-3.147-5.204-66 2h-66l-34 60-36 60-36-60zM484 476l16-28-16-28-14-28h-76l-14 28-16 28 16 28 14 30h76l14-30z" />
<glyph unicode="&#xe923;" glyph-name="religion-voodoo" d="M50 958c-20-8-34-20-44-40-4-10-6-14-6-28 0-16 2-18 8-30 10-22 30-36 54-40h10l108-138 110-138 40 30 22 20-216 272 2 10c0.919 4.253 1.445 9.139 1.445 14.148 0 37.057-28.795 67.389-65.231 69.84l-0.213 0.012-24-2zM272 826c27.658-33.578 54.46-63.548 82.397-92.413l-0.397 0.413c56-24 98-90 114-176l4-24h80l4 24c16 86 54 146 112 174 26 12 42 14 80 14 30 0 36 0 52-4 84-24 138-94 144-190 0-26-2-48-10-76-16-46-46-94-92-146l-18-22 68-42 46 56c42 56 70 114 82 168 4 24 4 80 0 108-24 134-126 224-260 230-104 4-190-44-238-130l-10-16-8 14c-38 70-108 118-188 130-28 2-46 4-44 0zM44 702c-30-52-44-104-44-162 0-92 52-192 156-300l24-24 56 56-24 24c-76 80-122 154-130 218-6 38 2 92 20 124l4 10-26 32-28 34-8-12zM616 300l-20-34 144-94 144-92v-10c2-14 12-32 22-40 14-14 28-20 48-20 14 0 18 2 28 6 16 8 26 18 34 34 6 12 8 14 8 30s-2 18-8 30c-12 24-34 38-60 38h-20c-6-2-18 6-152 92l-146 94-22-34zM282 204l-126-128h-16c-28-2-50-16-62-42-4-10-6-14-6-28s2-18 6-28c8-16 18-26 34-34 12-6 14-8 30-8s18 2 30 8c24 12 38 32 40 60v16l116 116 126 130 12 12-28 26-30 28-126-128zM596 120l-62-38-22-14-28 18-44 26-14 10-28-28-28-30c0-2 62-42 108-68l34-20 28 16c63.552 36.954 117.092 72.636 168.383 111.151l-4.383-3.151-70 46-38-26z" />
<glyph unicode="&#xe924;" glyph-name="religion-voodoo-doll" d="M480 956c-73.769-13.784-131.204-70.546-145.803-142.833l-0.197-1.167-24 20c-36 34-56 44-92 48-56 4-110-38-122-96-10-38 2-76 28-106l74-70 62-58 70-14 72-12c-70.745 69.39-144.349 139.829-218.812 209.359l-7.188 6.641-2 20c0 16 4 26 16 34 12 6 32 8 42 0l112-104 108-102h120l106 102 112 106c10 6 30 4 42-2 12-8 16-18 16-34 2-8 0-14-2-20l-110-106-104-100v-40c0-40 0-42 4-42l36 8 36 10c4 0 4 2 4 16v14l84 80c106 100 112 108 120 126 24 48 16 100-22 138-20.863 22.299-50.469 36.196-83.322 36.196-2.349 0-4.682-0.071-6.996-0.211l0.318 0.015c-36-4-56-14-90-46l-24-22-4 14c-22.259 77.154-92.239 132.629-175.176 132.629-10.89 0-21.557-0.956-31.921-2.79l1.096 0.161zM532 878c46-10 80-52 80-98s-34-88-80-98c-60-12-120 36-120 98 0 44 32 86 76 98h44zM114 518c-20-6-38-18-46-38-6-12-8-14-8-30s2-18 8-30c18-40 66-52 102-26l10 6 136-22 138-26h4v82l-20 2-240 44c-4 0-8 4-10 8-6 10-18 20-30 26-12 4-34 6-44 4zM876 454c-20.051-6.289-36.246-19.881-45.796-37.586l-0.204-0.414-236-54c-0.436-8.221-0.684-17.846-0.684-27.529 0-19.183 0.975-38.138 2.878-56.818l-0.194 2.347 126 28 124 28 8-6c14-10 28-12 46-12 26 2 46 16 58 42 4 10 6 14 6 28l-6 28c-14 32-50 48-82 40zM214 224l-92-88c-18.785-20.815-30.278-48.527-30.278-78.924 0-8.166 0.83-16.139 2.409-23.838l-0.13 0.761c10-42 42-78 84-92 10-4 18-4 36-4 24 0 38 4 60 16l110 102 100 94h56l98-94 110-102c22-12 36-16 60-16 20 0 26 0 36 4 32 10 58 34 72 60 18 38 18 74 0 110-8 16-20 30-92 98l-32 32-48-10-46-12 72-68c78-74 82-78 80-98-2-26-32-44-56-32-6 2-50 42-116 106l-106 102h-120l-82-78-108-102-34-28c-24-12-54 6-56 32 0 20 0 22 114 130 58 52 104 98 102 98-26.278 7.124-57.59 12.773-89.659 15.82l-2.341 0.18c-2 2-36-30-82-74z" />
<glyph unicode="&#xe925;" glyph-name="religion-yin-yang" d="M474 958l-26-2c-231.465-31.433-412.568-212.536-443.703-441.329l-0.297-2.671c-2.762-19.859-4.338-42.804-4.338-66.117 0-141.772 58.305-269.926 152.244-361.792l0.094-0.092c91.741-89.206 217.14-144.213 355.387-144.213 281.665 0 510 228.335 510 510 0 254.626-186.6 465.669-430.512 503.842l-2.875 0.371c-20 4-94 6-110 4zM544 878c72-14 130-62 154-130 6.813-19.080 10.75-41.090 10.75-64.019 0-108.248-87.752-196-196-196-0.967 0-1.932 0.007-2.896 0.021l0.146-0.002-50-6c-108-20-194-104-218-214-4-18-4-28-4-56 0-40 4-64 16-94l6-20-54 44c-78.020 78.15-126.267 186.044-126.267 305.207 0 238.587 193.413 432 432 432 11.355 0 22.609-0.438 33.743-1.298l-1.477 0.092zM798 772c88.092-79.743 143.199-194.519 143.199-322.166 0-188.53-120.212-348.984-288.168-408.891l-3.031-0.943c-66-22-140-30-184-18-66 16-118 64-140 126-6.813 19.080-10.75 41.090-10.75 64.019 0 108.248 87.752 196 196 196 0.967 0 1.932-0.007 2.896-0.021l-0.146 0.002c152.321 0.145 275.746 123.659 275.746 276 0 40.548-8.744 79.055-24.449 113.736l0.703-1.735 32-24zM492 752c-20-8-34-20-44-40-4-10-4-14-4-28 0-16 0-18 6-30 8-16 18-26 34-34 10-4 14-4 28-4s18 0 28 4c16 8 26 18 34 34 6 12 8 14 8 30 0 14-2 18-6 28-12 26-34 40-60 42l-24-2zM492 280c-20-8-34-20-44-40-4-10-4-14-4-28 0-16 0-18 6-30 8-16 18-26 34-34 10-4 14-4 28-4 14-2 18 0 28 4 16 8 26 18 34 34 6 12 8 14 8 30 0 14-2 18-6 28-12 26-34 40-60 42l-24-2z" />
<glyph unicode="&#xe926;" glyph-name="zodiac-aquarius" d="M148 708c-28-6-52-26-84-68l-26-36c-10-10-26-20-34-20-4 0-4-2-4-40v-40h12c42 6 74 28 116 86 20 28 36 42 42 42 10 0 22-12 46-44 30-40 52-62 74-72 28-12 50-14 78-8 30 8 58 30 94 76 30 36 42 48 52 48 6 0 22-16 42-44 38-50 64-72 98-80 22-6 42-4 64 2 28 10 48 28 86 74 34 42 42 50 54 48 10-2 26-18 48-46 50-58 74-76 108-82h10v80l-4 2c-10 4-20 14-44 44-30 36-46 52-64 64-15.843 11.472-35.666 18.35-57.095 18.35-27.871 0-53.025-11.635-70.869-30.312l-0.036-0.038-38-42c-13.576-20.496-30.192-37.749-49.42-51.602l-0.58-0.398c-24-10-38 0-76 50-40 52-64 70-100 74-36 2-68-16-104-58-46-56-56-66-72-70-18-2-32 10-66 54-24 32-48 56-64 64-22 10-44 12-66 6zM148 388c-28-6-52-26-84-70l-26-34c-10-10-26-20-34-20-4 0-4-2-4-40v-40h12c42 6 74 28 116 84 20 28 36 44 42 44 10 0 22-12 46-44 30-40 52-62 74-72 28-12 50-14 78-8 30 8 58 30 94 74 30 38 42 50 52 50 6 0 22-16 42-44 38-50 64-72 98-80 22-6 42-4 64 2 28 10 48 28 86 74 34 42 42 50 54 48 10-4 26-18 48-46 50-58 74-76 108-82h10v80l-4 2c-10 4-20 14-44 44-30 36-46 52-64 64-15.843 11.472-35.666 18.35-57.095 18.35-27.871 0-53.025-11.635-70.869-30.312l-0.036-0.038-38-42c-13.576-20.496-30.192-37.749-49.42-51.602l-0.58-0.398c-24-10-38-2-76 50-40 52-64 70-100 74-36 2-68-16-104-58-46-56-56-66-72-70-18-2-32 10-66 54-24 32-48 56-64 64-22 10-44 12-66 6z" />
<glyph unicode="&#xe927;" glyph-name="zodiac-aries" d="M158 956c-86.386-14.171-152.345-85.604-157.972-173.45l-0.028-0.55v-14h80l2 16c8 58 62 100 118 96 102-10 184-178 232-470 20-126 32-260 38-408l2-66h80l2 66c10 272 46 516 102 672 38 110 88 180 142 200 64 22 134-22 144-90l2-16h80v16c-4 46-24 86-58 120-33.821 34.691-81.012 56.208-133.229 56.208-21.767 0-42.66-3.739-62.073-10.609l1.302 0.402c-110-38-192-188-244-446-3.687-14.41-9.259-42.151-14.241-70.095l-1.759-11.905-4 16-12 66c-52 258-134 408-244 446-32 10-62 12-94 8z" />
<glyph unicode="&#xe928;" glyph-name="zodiac-cancer" d="M434 900c-159.676-9.886-304.693-65.406-424.184-153.538l2.184 1.538-12-10 24-28 26-30c2-2 6 0 12 4 108.458 85.954 247.28 137.89 398.232 137.89 103.32 0 200.958-24.331 287.495-67.576l-3.726 1.686s-4-4-10-4l-30-14c-71.728-37.232-119.886-110.942-119.886-195.901 0-121.503 98.497-220 220-220s220 98.497 220 220c0 33.334-7.414 64.937-20.682 93.249l0.568-1.348c-20 46-74 98-146 146-110.129 75.624-246.324 120.775-393.063 120.775-11.585 0-23.104-0.281-34.55-0.838l1.614 0.062zM838 678c68.405-9.97 120.351-68.226 120.351-138.614 0-77.32-62.68-140-140-140-17.357 0-33.977 3.159-49.315 8.933l0.965-0.318c-53.952 20.265-91.649 71.423-91.649 131.386 0 77.32 62.68 140 140 140 6.932 0 13.745-0.504 20.407-1.477l-0.758 0.091zM196 572c-72-8-140-56-172-120-30-60-32-130-4-188 22-48 76-102 152-152 178-118 382-148 592-86 88 24 186 72 248 122l12 10-24 28-26 30c-2 2-6 0-12-4l-30-22c-109.312-72.159-243.425-115.114-387.571-115.114-23.391 0-46.517 1.131-69.327 3.342l2.898-0.227c-73.824 10.15-140.595 31.941-201.4 63.612l3.4-1.612 12 6c69.093 25.035 121.607 80.839 141.608 150.405l0.392 1.595c4 18 4 24 4 54 0 28 0 36-4 50-20.752 91.657-97.154 160.609-191.095 169.927l-0.905 0.073h-46zM254 488c60.189-16.563 103.669-70.806 103.669-135.204 0-61.46-39.604-113.671-94.684-132.503l-0.985-0.293c-20-6-52-8-74-2-42 10-72 34-92 72-12 22-14 36-14 62-2 26 2 42 12 62 30 60 98 92 160 74z" />
<glyph unicode="&#xe929;" glyph-name="zodiac-capricorn" d="M0 920v-40h6l24-4c40-10 74-44 84-84 4-16 4-24 4-280v-262h80v250c2 280 0 258 16 292 16 32 38 56 72 72 24 12 38 16 68 16s42-4 68-16c32-16 56-38 72-70 16-34 14-18 16-238l4-214c12-56 32-104 68-146l14-20-10-18c-16-26-42-60-62-80-29.299-32.864-69.554-55.409-114.987-61.882l-1.013-0.118h-12v-80h6c28 0 66 10 98 26 52 26 100 72 144 138l14 24 8-6c12-8 46-24 68-30 48-16 96-22 134-14 74 12 130 64 150 138 6 20 6 66 2 86-20.989 83.811-95.645 144.901-184.57 144.901-22.738 0-44.544-3.994-64.753-11.319l1.323 0.419c-32-14-66-42-90-76-18.442-28.176-34.644-60.532-46.973-94.738l-1.027-3.262c-4 0-24 40-30 60-14 38-12 26-14 244l-2 198-4 20c-12 44-32 78-64 110-42.257 43.775-101.454 70.957-167 70.957s-124.743-27.182-166.935-70.888l-0.065-0.068-20-20-8 10c-12 16-40 42-56 52-30 16-54 24-86 28h-16v-40zM858 362c42-8 78-44 84-88 10-58-30-112-86-122-26-4-64 0-98 12-14 4-48 22-58 28l-4 4 16 40c20 46 22 52 36 72 28 44 64 62 110 54z" />
<glyph unicode="&#xe92a;" glyph-name="zodiac-gemini" d="M16 928c-18-48-18-42 8-50 66-20 118-34 196-46l44-8v-752h-6l-30-6c-88.388-15.796-164.393-35.212-238.201-59.472l12.201 3.472c9.571-28.416 19.714-52.21 31.427-75.067l-1.427 3.067 82 22c118.379 29.432 254.28 46.318 394.125 46.318 172.514 0 339.026-25.697 495.917-73.471l-12.042 3.153c4 0 6 6 16 32l14 38c0 6 0 6-26 14-65.842 21.285-144.888 39.45-226.047 51.066l-7.953 0.934h-4v376l2 376 104 18c64 12 158 40 158 44l-26 74-18-6c-130.178-40.376-279.981-64.383-435.152-65.993l-0.848-0.007c-10.838-0.259-23.606-0.407-36.409-0.407-168.955 0-331.898 25.737-485.123 73.505l11.532-3.098c-2 2-6-6-16-30zM386 812c64-6 206-4 278 2h14v-734l-16 2c-80 8-198 8-298 0h-18v734l6-2 34-2z" />
<glyph unicode="&#xe92b;" glyph-name="zodiac-leo" d="M574 958c-102.967-9.051-189.614-71.066-233.246-158.335l-0.754-1.665c-24-48-32-84-30-142 2-36 6-58 20-110l8-30-16 4c-70 24-150 2-202-52-22.666-22.13-39.912-49.71-49.628-80.626l-0.372-1.374c-4-18-4-22-4-56s0-38 4-56c20.92-68.492 74.73-120.98 142.553-139.66l1.447-0.34c24-4 74-4 96 2 58.044 15.362 105.077 53.897 131.459 104.852l0.541 1.148c14 26 18 46 20 80 2 48-6 84-38 188-30 96-36 124-34 168 2 32 6 52 18 80 24 50 74 94 128 112 19.263 6.367 41.436 10.039 64.466 10.039 98.627 0 181.524-67.349 205.209-158.566l0.325-1.473c6-20 6-84 2-110-14-66-42-112-120-210-58-72-78-100-98-140-17.38-33.326-27.576-72.782-27.576-114.62 0-35.153 7.198-68.626 20.201-99.023l-0.625 1.643c10-22 18-32 36-50 26-28 58-46 96-56 22-6 72-6 94 0 58.044 15.362 105.077 53.897 131.459 104.852l0.541 1.148c10 20 18 46 20 70v18h-80v-10c0-28-20-66-46-84-19.858-15.113-45.007-24.212-72.281-24.212-66.274 0-120 53.726-120 120 0 2.889 0.102 5.755 0.303 8.593l-0.022-0.382c2 38 12 68 36 106 14 24 26 42 74 100 60 76 80 104 104 152 28 60 38 108 36 172-6.085 157.568-135.291 282.998-293.794 282.998-8.52 0-16.956-0.362-25.293-1.073l1.087 0.075zM288 448c44-10 80-44 90-88 4-14 4-46 2-60-14-50-56-86-108-90-22-2-40 2-62 14-30 14-54 42-62 76-4 14-4 46 0 60 16 62 78 100 140 88z" />
<glyph unicode="&#xe92c;" glyph-name="zodiac-libra" d="M470 882c-180.042-19.367-318.997-170.492-318.997-354.072 0-92.568 35.33-176.884 93.242-240.2l-0.245 0.271h-244v-80h394v66l-18 10c-26 16-44 30-64 52-47.034 47.348-76.104 112.592-76.104 184.626 0 2.593 0.038 5.178 0.113 7.753l-0.009-0.378c-0.068 2.207-0.106 4.804-0.106 7.409 0 75.398 32.342 143.241 83.91 190.414l0.196 0.177c49.851 49.388 118.473 79.904 194.223 79.904 135.434 0 248.084-97.548 271.522-226.217l0.255-1.688c4-24 4-78 0-102-18-82-64-146-136-190l-20-12v-66h394v80h-122l-122 2 8 10 22 28c37.692 55.615 60.174 124.206 60.174 198.048 0 194.565-156.083 352.675-349.867 355.948l-0.307 0.004h-50zM0 50v-40h1024v80h-1024v-40z" />
<glyph unicode="&#xe92d;" glyph-name="zodiac-pisces" d="M190 934l-30-28 14-18c70-100 116-234 128-382v-18h-136v-80h136v-22c-6-80-24-166-54-240-23.411-58.807-52.333-109.596-87.191-155.642l1.191 1.642 56-56 8 8c38 46 78 120 106 196 26 70 46 166 50 242v26h260v-26c4-76 24-168 50-240 28-76 68-154 108-200l6-6 28 26 28 28-12 20c-70 92-118 236-128 376v22h132v80h-132v4l4 36c11.222 143.007 61.27 272.469 139.485 380.146l-1.485-2.146-30 28-28 26-6-6c-88.004-123.855-145.292-275.171-157.816-439.010l-0.184-2.99v-24h-260v10c0 36-12 122-26 174-26 108-78 216-132 282l-6 6-28-26z" />
<glyph unicode="&#xe92e;" glyph-name="zodiac-sagittarius" d="M510 920v-40h378l-534-534-172 172-56-56 172-172-186-186-110-112 56-56 296 296 86-84 86-86 56 56-86 84-84 86 530 534 2-188v-188h80v514h-514v-40z" />
<glyph unicode="&#xe92f;" glyph-name="zodiac-scorpio" d="M0 920v-40l14-2c20-2 42-14 56-26 12-14 24-36 26-52l2-320v-308h80v310c0 340 0 320 12 346 16 34 60 56 100 50 30-4 58-24 72-50 12-24 12-6 12-346v-310h78l2 314c0 256 2 316 4 322 12 36 44 64 80 70 38 8 80-14 100-50 12-24 12-10 12-330 0-316 0-302 12-332 8-22 18-36 36-56 16-14 24-20 38-26 28-16 42-18 90-20h42l-36-36-34-36 56-56 84 86 86 86-170 170-28-30-28-28 36-38 38-36-34-2c-40 0-52 2-70 12-14 8-22 20-30 36l-6 14-2 302c0 300 0 302-6 316-18 68-64 114-128 130-14 4-22 4-44 4s-30 0-42-4c-32-8-60-24-82-46l-14-14-12 12c-32.703 33.391-78.252 54.092-128.636 54.092-9.659 0-19.139-0.761-28.386-2.226l1.022 0.133c-36-6-64-22-92-48l-16-14-14 12c-27.915 28.507-65.395 47.552-107.239 51.935l-0.761 0.065h-16v-40z" />
<glyph unicode="&#xe930;" glyph-name="zodiac-taurus" d="M66 920v-40h18c48-4 84-22 114-52 14-16 28-36 52-76 26.555-51.875 61.449-95.712 103.41-131.509l0.59-0.491-12-6c-100.967-54.873-172.049-153.719-187.793-270.133l-0.207-1.867c-1.803-13.533-2.832-29.18-2.832-45.067 0-198.823 161.177-360 360-360s360 161.177 360 360c0 140.986-81.045 263.043-199.088 322.124l-2.080 0.943 12 10c28 22 52 54 92 120l38 60c32 44 74 66 128 70h18v80h-8c-0.903 0.012-1.97 0.019-3.039 0.019-88.213 0-165.493-46.811-208.353-116.948l-0.608-1.071-34-54c-32-50-42-66-62-86-24.123-23.294-56.005-38.694-91.403-41.956l-0.597-0.044c-46-8-98-2-128 14-38 20-58 44-108 126-48 80-84 116-136 138-28 14-72 22-102 22h-10v-40zM568 570c56-12 100-36 142-78 24-24 38-42 52-72 20-40 28-76 28-124 0-60-14-108-46-158-14-20-54-60-74-74-44.097-30.339-98.653-48.456-157.441-48.456-154.64 0-280 125.36-280 280s125.36 280 280 280c19.622 0 38.773-2.018 57.257-5.859l-1.816 0.316z" />
<glyph unicode="&#xe931;" glyph-name="zodiac-virgo" d="M8 920v-38l16-4c32-4 58-24 72-54l8-16 2-318v-318h82v318l2 318 8 16c16 34 50 56 88 56 42 0 82-32 94-72l2-322v-314h82v312c0 308 0 314 4 326 8 26 28 48 52 60 50 24 108 2 132-52l6-10v-316l2-314 4-22 6-26c2-2-8-12-36-40-26.421-25.427-54.424-51.531-82.838-77.189l-3.162-2.811 24-32 24-28 6 4 108 98 8-10c24-34 68-66 108-84 28-12 72-22 98-22h10v80h-16c-61.966 5.535-115.15 38.866-147.548 87.283l-0.452 0.717c-2 6-4 4 30 42 100.023 102.499 173.945 230.915 210.741 374.219l1.259 5.781c4 28 2 72-2 92-10 56-54 106-108 128-24 8-36 10-64 10-38 0-58-6-96-26l-2 36-6 54c-10 54-52 104-104 126-26 10-38 12-70 12-26 0-32 0-46-4-32-10-52-22-76-46l-16-14-6 6c-8 14-34 32-56 42-28 14-44 16-78 16-24 0-30 0-44-4l-34-14c-18-8-42-28-52-40l-4-6-8 8c-18 22-58 46-88 52l-30 6h-14v-40zM860 676c18-6 32-12 46-28 24-24 30-40 28-84-4-98-64-214-178-346l-14-18-2 198c0 192 0 198 4 210 14 50 66 78 116 68z" />
</font>
</defs>
</svg>
